<svg title="instagram" xmlns="http://www.w3.org/2000/svg" width="28" height="28" viewBox="0 0 28 28">
	<path d="M13.9 3.2c3.5 0 3.9 0 5.3.1 1.3.1 2 .3 2.4.5.6.2 1.1.5 1.5 1 .5.5.7.9 1 1.5.2.5.4 1.2.5 2.4.1 1.4.1 1.8.1 5.3s0 3.9-.1 5.3c-.1 1.3-.3 2-.5 2.4-.2.6-.5 1.1-1 1.5-.5.5-.9.7-1.5 1-.5.2-1.2.4-2.4.5-1.4.1-1.8.1-5.3.1s-3.9 0-5.3-.1c-1.3-.1-2-.3-2.4-.5-.6-.2-1.1-.5-1.5-1-.5-.5-.7-.9-1-1.5-.2-.5-.4-1.2-.5-2.4-.1-1.4-.1-1.8-.1-5.3s0-3.9.1-5.3c.1-1.3.3-2 .5-2.4.2-.6.5-1.1 1-1.5.5-.5.9-.7 1.5-1 .5-.2 1.2-.4 2.4-.5 1.3-.1 1.7-.1 5.3-.1zm0-2.4c-3.6 0-4 0-5.4.1-1.5.1-2.4.3-3.2.6-.9.3-1.6.8-2.4 1.5-.7.8-1.2 1.5-1.5 2.3-.3.9-.5 1.8-.6 3.2C.7 9.9.7 10.4.7 14s0 4 .1 5.4c.1 1.4.3 2.4.6 3.2.3.9.8 1.6 1.5 2.3.7.7 1.5 1.2 2.3 1.5.9.3 1.8.5 3.2.6 1.4.1 1.8.1 5.4.1s4 0 5.4-.1c1.4-.1 2.4-.3 3.2-.6.9-.3 1.6-.8 2.3-1.5.7-.7 1.2-1.5 1.5-2.3.3-.8.5-1.8.6-3.2.2-1.4.2-1.9.2-5.4s0-4-.1-5.4c-.1-1.4-.3-2.4-.6-3.2-.3-.9-.8-1.6-1.5-2.4-.7-.7-1.5-1.2-2.3-1.5-.8-.3-1.8-.5-3.2-.6-1.4-.1-1.9-.1-5.4-.1z"/>
	<path d="M13.9 7.2a6.7 6.7 0 1 0 0 13.4 6.7 6.7 0 0 0 0-13.4zm0 11.1c-2.4 0-4.4-2-4.4-4.4s2-4.4 4.4-4.4 4.4 2 4.4 4.4-2 4.4-4.4 4.4zm8.5-11.4c0 .9-.7 1.6-1.6 1.6s-1.6-.7-1.6-1.6.7-1.6 1.6-1.6 1.6.8 1.6 1.6z"/>
</svg>