<svg title="Linked In" xmlns="http://www.w3.org/2000/svg" width="26" height="26" viewBox="0 0 26 26">
  <path d="M8.56 6.364c0 1.02-.68 1.897-1.92 1.897-1.167 0-1.92-.826-1.92-1.845 0-1.046.73-1.97 1.92-1.97s1.898.873 1.92 1.92zm-3.84 15.36V9.244h3.84v12.48H4.72zm5.76-8.214c0-1.483-.05-2.722-.098-3.792h3.45l.17 1.654h.074c.485-.778 1.676-1.92 3.67-1.92 2.43 0 4.253 1.627 4.253 5.128v7.144h-3.84v-6.586c0-1.53-.584-2.698-1.92-2.698-1.02 0-1.53.826-1.8 1.506-.098.244-.12.583-.12.924v6.853h-3.84V13.51z"/>
</svg>
