<svg title="pinterest" xmlns="http://www.w3.org/2000/svg" width="28" height="28" viewBox="0 0 28 28">
	<path d="M5.5 10.9c0-1 .2-1.9.5-2.7.3-.8.8-1.6 1.4-2.2s1.3-1.2 2-1.6c.8-.5 1.6-.8 2.5-1 .9-.2 1.8-.3 2.7-.3 1.4 0 2.7.3 3.9.9s2.2 1.4 2.9 2.6c.8 1.1 1.1 2.4 1.1 3.8 0 .9-.1 1.7-.3 2.5-.2.8-.4 1.6-.8 2.4s-.8 1.4-1.3 2c-.5.6-1.2 1-1.9 1.4-.8.3-1.6.5-2.5.5-.6 0-1.2-.1-1.8-.4-.6-.3-1-.7-1.3-1.2-.1.3-.2.8-.4 1.5s-.3 1.1-.3 1.3c0 .2-.1.5-.3.9-.1.4-.2.8-.3.9l-.4.8s-.4.7-.6 1c-.3.2-.5.6-.9 1l-.2.1-.1-.1c-.1-1.4-.2-2.2-.2-2.5 0-.8.1-1.7.3-2.8.2-1 .5-2.3.9-3.8s.6-2.4.7-2.7c-.3-.6-.4-1.3-.4-2.3 0-.7.2-1.4.7-2.1.5-.6 1-1 1.8-1 .5 0 1 .2 1.3.5.3.4.5.8.5 1.4 0 .6-.2 1.4-.6 2.5-.4 1.1-.6 1.9-.6 2.5 0 .6.2 1 .6 1.4.4.4.9.6 1.5.6.5 0 .9-.1 1.4-.3.4-.2.8-.5 1-.9.3-.4.5-.8.7-1.3.2-.5.4-1 .5-1.5l.3-1.5c.1-.5.1-.9.1-1.3 0-1.5-.5-2.7-1.5-3.6-1-.9-2.2-1.3-3.8-1.3-1.8 0-3.3.6-4.4 1.7-1.4 1.3-2 2.7-2 4.5 0 .4.1.8.2 1.1.1.4.2.7.4.9.1.2.2.4.4.6 0 .2.1.3.1.4 0 .2-.1.6-.2 1s-.3.6-.5.6h-.2c-.5-.1-.9-.4-1.2-.7-.4-.4-.6-.8-.8-1.3-.2-.5-.3-1-.4-1.4-.2-.6-.2-1.1-.2-1.5z"/>
</svg>