<svg title="pinterest" xmlns="http://www.w3.org/2000/svg" width="512" height="512" viewBox="0 0 512 512">
  <path d="M78.077 191.036c0-19.904 3.455-38.656 10.366-56.256 6.91-17.6 16.448-32.943 28.612-46.028s26.17-24.42 42.02-34.002c15.85-9.583 32.896-16.77 51.142-21.562S247.077 26 266.057 26c29.12 0 56.212 6.127 81.275 18.383s45.43 30.086 61.094 53.492c15.664 23.405 23.497 49.852 23.497 79.34 0 17.69-1.75 35.015-5.252 51.97-3.5 16.956-9.03 33.266-16.58 48.93s-16.77 29.44-27.64 41.328c-10.87 11.887-24.23 21.38-40.08 28.474-15.85 7.095-33.266 10.644-52.247 10.644-12.533 0-24.973-2.94-37.32-8.84-12.35-5.9-21.194-14-26.54-24.32-1.842 7.19-4.422 17.557-7.74 31.1-3.316 13.548-5.482 22.3-6.496 26.265-1.013 3.963-2.903 10.506-5.667 19.628-2.768 9.125-5.16 15.668-7.19 19.63l-8.85 17.277s-8.11 14.697-12.716 21.423c-4.61 6.726-10.32 14.697-17.14 23.91l-3.87 1.38-2.49-2.762c-2.764-28.932-4.145-46.255-4.145-51.97 0-16.953 1.98-35.982 5.94-57.084 3.96-21.104 10.09-47.594 18.38-79.48s13.087-50.59 14.377-56.116c-5.9-11.98-8.848-27.55-8.848-46.72 0-15.295 4.79-29.67 14.372-43.124s21.748-20.18 36.49-20.18c11.243 0 19.998 3.73 26.264 11.194 6.264 7.463 9.397 16.91 9.397 28.334 0 12.166-4.054 29.766-12.163 52.8-8.11 23.04-12.162 40.27-12.162 51.697 0 11.61 4.145 21.24 12.44 28.888 8.292 7.645 18.337 11.47 30.13 11.47 10.136 0 19.535-2.305 28.197-6.91 8.665-4.61 15.898-10.875 21.7-18.8 5.808-7.923 10.968-16.68 15.48-26.262s8.02-19.765 10.508-30.546 4.33-21.01 5.53-30.69c1.2-9.673 1.798-18.84 1.798-27.503 0-31.884-10.09-56.717-30.27-74.5-20.18-17.787-46.485-26.68-78.922-26.68-36.86 0-67.637 11.933-92.333 35.8-24.696 23.865-37.043 54.136-37.043 90.81 0 8.11 1.153 15.94 3.457 23.5 2.306 7.555 4.794 13.544 7.466 17.968 2.67 4.422 5.16 8.614 7.462 12.577 2.3 3.963 3.453 6.774 3.453 8.43 0 5.16-1.382 11.89-4.146 20.183-2.765 8.293-6.174 12.44-10.23 12.44-.37 0-1.934-.277-4.7-.83-9.397-2.765-17.736-7.924-25.016-15.48s-12.9-16.27-16.864-26.13c-3.96-9.86-6.956-19.81-8.983-29.855-2.025-10.044-3.04-19.86-3.04-29.44z"/>
</svg>
