<?xml version="1.0" encoding="utf-8"?>
<!-- Generator: Adobe Illustrator 21.0.2, SVG Export Plug-In . SVG Version: 6.00 Build 0)  -->
<svg version="1.1" id="Layer_1" xmlns="http://www.w3.org/2000/svg" xmlns:xlink="http://www.w3.org/1999/xlink" x="0px" y="0px"
	 width="26px" height="26px" viewBox="0 0 26 26" enable-background="new 0 0 26 26" xml:space="preserve">
<path d="M14.7,2.3c-4.6,0-8.3,3.7-8.3,8.3c0,2.1,0.8,4,2.2,5.6l-5.3,5.3C3.1,21.7,3,22,3,22.2c0,0.3,0.1,0.5,0.3,0.7
	c0.2,0.2,0.5,0.3,0.8,0.3c0.3,0,0.5-0.1,0.7-0.3l5.4-5.4c1.4,0.9,2.9,1.3,4.5,1.3c4.6,0,8.3-3.7,8.3-8.3S19.3,2.3,14.7,2.3L14.7,2.3
	z M14.7,17.2c-3.6,0-6.6-2.9-6.6-6.6c0-3.6,2.9-6.6,6.6-6.6c3.6,0,6.6,2.9,6.6,6.6S18.3,17.2,14.7,17.2L14.7,17.2z"/>
</svg>
