<svg title="search" xmlns="http://www.w3.org/2000/svg" width="512" height="512" viewBox="0 0 512 512">
	<path d="M496.13 435.698L374.856 332.55c-12.537-11.282-25.945-16.462-36.776-15.962C366.706 283.054 384 239.548 384 192 384 85.96 298.04 0 192 0S0 85.96 0 192s85.96 192 192 192c47.55 0 91.054-17.293 124.588-45.922-.5 10.83 4.68 24.24 15.963 36.776L435.7 496.13c17.66 19.623 46.51 21.277 64.11 3.678s15.946-46.45-3.677-64.11zM192 320c-70.692 0-128-57.308-128-128S121.308 64 192 64s128 57.308 128 128-57.307 128-128 128z"/>
</svg>
