<svg title="twitter" xmlns="http://www.w3.org/2000/svg" width="26" height="26" viewBox="0 0 26 26">
	<path d="M20.312 9.216c.008.18.012.36.012.54 0 5.534-4.21 11.91-11.907 11.91-2.366 0-4.564-.692-6.417-1.88.33.04.66.06.998.06 1.963 0 3.767-.67 5.198-1.792-1.83-.033-3.376-1.242-3.91-2.906.256.05.52.074.788.074.382 0 .753-.05 1.103-.146C4.263 14.69 2.82 13 2.82 10.97v-.05c.565.312 1.21.5 1.896.523-1.123-.753-1.862-2.032-1.862-3.486 0-.765.206-1.484.567-2.104 2.068 2.534 5.15 4.2 8.63 4.374-.07-.307-.11-.624-.11-.955 0-2.31 1.876-4.184 4.186-4.184 1.205 0 2.293.507 3.057 1.32.95-.187 1.85-.536 2.66-1.014-.313.976-.98 1.797-1.843 2.314.847-.102 1.65-.325 2.403-.658-.56.842-1.27 1.577-2.087 2.166z"/>
</svg>