<svg title="youtube" xmlns="http://www.w3.org/2000/svg" width="28" height="28" viewBox="0 0 28 28">
	<path d="M16.9 18.9v3c0 .6-.2 1-.6 1-.2 0-.4-.1-.6-.3v-4.3c.2-.2.4-.3.6-.3.4 0 .6.3.6.9zm4.8.1v.7h-1.3V19c0-.6.2-1 .6-1s.7.3.7 1zM8 15.9h1.5v-1.3H5.1v1.3h1.5V24H8v-8.1zm4.1 8h1.3v-7h-1.3v5.4c-.3.4-.6.6-.8.6-.2 0-.3-.1-.3-.3v-5.7H9.7v5.5c0 .5 0 .8.1 1 .1.3.4.5.8.5.5 0 .9-.3 1.4-.9l.1.9zm6-2.1V19c0-.7 0-1.2-.1-1.4-.2-.5-.5-.8-1-.8s-.9.3-1.3.8v-3.1h-1.3v9.4h1.3v-.7c.4.5.9.8 1.3.8.5 0 .8-.3 1-.8.1-.2.1-.7.1-1.4zm4.8-.1v-.2h-1.3v.9c-.1.3-.3.5-.6.5-.4 0-.7-.3-.7-1v-1.2h2.5v-1.5c0-.7-.1-1.3-.4-1.6-.4-.5-.9-.7-1.5-.7s-1.1.2-1.5.7c-.3.3-.4.9-.4 1.6v2.5c0 .7.1 1.3.4 1.6.4.5.9.7 1.5.7.7 0 1.2-.3 1.5-.8.2-.3.3-.5.3-.8.2 0 .2-.2.2-.7zm-8.6-13v-3c0-.7-.2-1-.6-1-.4 0-.6.3-.6 1v3c0 .7.2 1 .6 1 .4 0 .6-.3.6-1zm10.2 10.7c0 2.2-.1 3.9-.4 5-.1.6-.4 1-.8 1.4-.4.4-.9.6-1.4.7-1.7.2-4.4.3-7.9.3s-6.1-.1-7.9-.3c-.5-.1-1-.3-1.5-.7-.4-.4-.7-.8-.8-1.4-.2-1.1-.4-2.7-.4-5 0-2.2.1-3.9.4-5 .1-.6.4-1 .8-1.4.4-.4.9-.6 1.5-.7 1.7-.2 4.4-.3 7.9-.3s6.1.1 7.9.3c.5.1 1 .3 1.5.7.4.4.7.8.8 1.4.2 1.1.3 2.7.3 5zM10.4 1.3h1.4L10.1 7v3.8H8.7V6.9c-.1-.7-.4-1.7-.9-3-.3-.9-.7-1.8-.9-2.6h1.5l1 3.7 1-3.7zM15.6 6v2.5c0 .8-.1 1.3-.4 1.7-.3.5-.9.7-1.5.7s-1.1-.2-1.5-.7c-.3-.4-.4-.9-.4-1.7V6c0-.8.1-1.3.4-1.7.4-.5.9-.7 1.5-.7.7 0 1.2.2 1.5.7.3.4.4 1 .4 1.7zm4.8-2.3v7.1h-1.3V10c-.5.6-1 .9-1.5.9-.4 0-.7-.2-.8-.5-.1-.2-.1-.6-.1-1.1V3.7H18v5.7c0 .2.1.3.3.3.3 0 .5-.2.8-.6V3.7h1.3z"/>
</svg>