<svg title="youtube" xmlns="http://www.w3.org/2000/svg" width="512" height="512" viewBox="0 0 512 512">
	<path d="M310.055 349.38v57.224c0 12.114-3.525 18.17-10.577 18.17-4.16 0-8.228-1.987-12.204-5.966v-81.633c3.977-3.977 8.045-5.966 12.204-5.966 7.05 0 10.577 6.057 10.577 18.17zm91.667.27v12.476h-24.408V349.65c0-12.295 4.068-18.44 12.204-18.44 8.136 0 12.204 6.145 12.204 18.44zm-261.984-59.122h29.02v-25.494H84.14v25.494h28.478v154.315h27.12V290.528zm78.107 154.316h24.137V310.868h-24.137v102.516c-5.424 7.594-10.577 11.39-15.458 11.39-3.254 0-5.153-1.897-5.695-5.694-.18-.542-.27-3.707-.27-9.492v-98.72h-24.138V416.91c0 8.86.723 15.46 2.17 19.8 2.17 6.688 7.413 10.033 15.73 10.033 8.678 0 17.9-5.514 27.662-16.544v14.644zm116.347-40.14V351.28c0-13.198-.814-22.148-2.44-26.85-3.075-10.126-9.493-15.188-19.257-15.188-9.04 0-17.448 4.882-25.222 14.645v-58.852h-24.138v179.81h24.138v-13.018c8.136 9.944 16.544 14.916 25.222 14.916 9.764 0 16.182-4.97 19.256-14.915 1.628-4.88 2.442-13.92 2.442-27.12zm91.667-2.71v-3.526h-24.68c0 9.22-.18 14.735-.543 16.543-1.266 6.51-4.882 9.765-10.85 9.765-8.315 0-12.475-6.237-12.475-18.713v-23.595h48.546v-27.935c0-14.282-2.44-24.77-7.322-31.46-7.052-9.22-16.635-13.83-28.748-13.83-12.295 0-21.968 4.61-29.02 13.83-5.06 6.69-7.593 17.178-7.593 31.46v46.92c0 14.282 2.62 24.77 7.864 31.46 7.05 9.22 16.814 13.83 29.29 13.83 13.018 0 22.78-4.792 29.29-14.374 3.254-4.882 5.152-9.764 5.695-14.645.365-1.627.544-6.87.544-15.73zm-164.893-247.61V97.43c0-12.476-3.89-18.713-11.662-18.713-7.774 0-11.662 6.238-11.662 18.713v56.953c0 12.656 3.888 18.984 11.662 18.984 7.773 0 11.662-6.328 11.662-18.984zm194.996 203.674c0 42.31-2.35 73.95-7.05 94.922-2.533 10.667-7.775 19.617-15.73 26.85s-17.178 11.39-27.664 12.476C372.25 496.102 322.08 498 255 498c-67.078 0-117.25-1.898-150.52-5.695-10.485-1.085-19.752-5.243-27.797-12.476-8.046-7.233-13.244-16.184-15.595-26.85-4.7-20.25-7.05-51.89-7.05-94.923 0-42.308 2.35-73.947 7.05-94.922 2.532-10.667 7.774-19.617 15.73-26.85s17.267-11.48 27.934-12.746c33.087-3.617 83.17-5.425 150.248-5.425 67.08 0 117.252 1.808 150.52 5.424 10.485 1.265 19.753 5.514 27.798 12.746s13.245 16.182 15.595 26.85c4.7 20.25 7.05 51.89 7.05 94.922zM185.3 12h27.663l-32.815 108.21v73.498h-27.12V120.21c-2.533-13.38-8.047-32.543-16.544-57.495-6.69-18.623-12.566-35.528-17.628-50.715h28.748l19.256 71.327L185.3 12zm100.346 90.312v47.46c0 14.646-2.532 25.313-7.594 32.003-6.69 9.22-16.272 13.832-28.748 13.832-12.114 0-21.606-4.61-28.477-13.832-5.062-6.87-7.594-17.538-7.594-32.002v-47.46c0-14.466 2.53-25.043 7.594-31.732 6.87-9.22 16.363-13.83 28.477-13.83 12.476 0 22.06 4.61 28.748 13.83 5.062 6.69 7.594 17.267 7.594 31.732zM376.5 58.376v135.332h-24.68v-14.916c-9.583 11.21-18.894 16.814-27.935 16.814-8.315 0-13.65-3.345-16-10.035-1.448-4.338-2.17-11.118-2.17-20.34V58.377h24.68v99.533c0 5.965.09 9.13.27 9.49.544 3.978 2.442 5.967 5.696 5.967 4.883 0 10.036-3.888 15.46-11.662V58.375h24.68z"/>
</svg>