<?xml version="1.0" standalone="no"?>
<!DOCTYPE svg PUBLIC "-//W3C//DTD SVG 1.1//EN" "http://www.w3.org/Graphics/SVG/1.1/DTD/svg11.dtd" >
<svg xmlns="http://www.w3.org/2000/svg">
<metadata></metadata>
<defs>
<font id="berling_nova_sans_proXBd" horiz-adv-x="1742" >
<font-face units-per-em="2048" ascent="1638" descent="-410" />
<missing-glyph horiz-adv-x="471" />
<glyph unicode="&#xfb01;" horiz-adv-x="1300" d="M0 772l31 189h123v135q0 512 508 512q235 0 395 -80v-314q-71 60 -170.5 101t-196.5 41q-103 0 -152 -66t-49 -205v-124h689v-961h-336v772h-353v-772h-335v772h-154z" />
<glyph unicode="&#xfb02;" horiz-adv-x="1310" d="M0 772l31 189h123v229q0 98 25.5 173t66.5 120.5t98.5 74.5t115.5 39.5t124 10.5q160 0 327 -62l287 51v-1597h-336v1292q-119 64 -211 64q-162 0 -162 -199v-196h322l-29 -189h-293v-772h-335v772h-154z" />
<glyph unicode="&#xfb03;" horiz-adv-x="1988" d="M0 772l31 189h123v116q0 111 29 195t75 134t111 81t128 42t136 11q151 0 321 -76q128 144 396 144q235 0 395 -80v-314q-71 60 -170.5 101t-196.5 41q-103 0 -151.5 -66t-48.5 -205v-124h688v-961h-336v772h-352v-772h-336v772h-353v-772h-335v772h-154zM489 961h353v135 q0 83 10 137q-98 55 -186 55q-94 0 -135.5 -47t-41.5 -151v-129z" />
<glyph unicode="&#xfb04;" horiz-adv-x="2000" d="M0 772l31 189h123v116q0 111 29 195t75 134t111 81t128 42t136 11q138 0 297 -65q110 133 344 133q163 0 330 -62l284 51v-1597h-336v1292q-119 64 -211 64q-161 0 -161 -199v-196h321l-28 -189h-293v-772h-336v772h-355v-772h-335v772h-154zM489 961h355v229q0 31 2 47 q-92 51 -180 51q-94 0 -135.5 -47t-41.5 -151v-129z" />
<glyph horiz-adv-x="2048" />
<glyph horiz-adv-x="2048" />
<glyph unicode="&#xd;" horiz-adv-x="2048" />
<glyph unicode=" "  horiz-adv-x="471" />
<glyph unicode="&#x09;" horiz-adv-x="471" />
<glyph unicode="&#xa0;" horiz-adv-x="471" />
<glyph unicode="!" horiz-adv-x="587" d="M86 1440l414 78l-80 -979l-252 -86zM98 164q0 79 58 135.5t137 56.5t135.5 -56t56.5 -136t-56.5 -137.5t-135.5 -57.5q-78 0 -136.5 58t-58.5 137z" />
<glyph unicode="&#x22;" horiz-adv-x="851" d="M102 1561h258l-51 -535h-155zM492 1561h258l-52 -535h-155z" />
<glyph unicode="#" horiz-adv-x="1320" d="M41 446v189h258l37 256h-234v190h260l62 437h205l-62 -437h277l61 437h205l-61 -437h231v-190h-258l-37 -256h236v-189h-260l-62 -446h-205l62 446h-277l-61 -446h-205l61 446h-233zM504 635h276l37 256h-276z" />
<glyph unicode="$" horiz-adv-x="1142" d="M72 1102q0 156 107.5 267t295.5 140v146h178v-137q195 -9 357 -82l-27 -285q-62 44 -151 82.5t-179 50.5v-414q51 -26 82 -42.5t79.5 -45.5t78 -53.5t65.5 -60.5t55.5 -72t33.5 -82.5t14 -97.5q0 -180 -108 -293t-300 -141v-142h-178v133q-205 8 -387 74l59 270 q151 -100 328 -108v432q-2 2 -9 5t-9 5q-127 64 -188 109q-197 144 -197 342zM350 1133q0 -60 29.5 -98t95.5 -74v315q-66 -15 -95.5 -50t-29.5 -93zM653 227q121 41 121 156q0 97 -121 172v-328z" />
<glyph unicode="%" horiz-adv-x="1730" d="M72 1098q0 193 94.5 305.5t245.5 112.5q158 0 250 -111t92 -305q0 -193 -95.5 -304.5t-246.5 -111.5q-159 0 -249.5 110t-90.5 304zM293 1098q0 -102 30 -160.5t89 -58.5q54 0 87 57.5t33 163.5q0 96 -30.5 157.5t-89.5 61.5q-54 0 -86.5 -60.5t-32.5 -160.5zM444 0 l662 1518h180l-659 -1518h-183zM977 414q0 193 94.5 305t245.5 112q158 0 250 -110.5t92 -304.5q0 -193 -95.5 -304.5t-246.5 -111.5q-159 0 -249.5 110t-90.5 304zM1198 414q0 -102 30 -160.5t89 -58.5q54 0 87.5 57.5t33.5 163.5q0 96 -31 157.5t-90 61.5 q-54 0 -86.5 -60.5t-32.5 -160.5z" />
<glyph unicode="&#x26;" horiz-adv-x="1392" d="M82 391q0 98 30.5 174t77.5 125.5t123 102.5q-41 52 -69.5 97t-56 126.5t-27.5 165.5q0 177 125.5 278t318.5 101q78 0 150.5 -22.5t132 -65.5t95.5 -112.5t36 -156.5q0 -79 -30.5 -151.5t-82.5 -127.5t-105 -94t-112 -69q131 -158 299 -326q19 59 19 127q0 74 -15 142 t-30 99l-15 32h303q5 -11 13 -31t21 -83.5t13 -127.5q0 -184 -114 -340l272 -254h-391q-37 35 -78 76q-173 -103 -393 -103q-89 0 -163.5 15.5t-126 41.5t-91.5 62t-64 73.5t-39 79.5t-20.5 77t-5.5 69zM379 432q0 -54 18 -97.5t45 -69t62 -42.5t67 -23.5t62 -6.5 q105 0 184 40q-181 178 -366 392q-72 -82 -72 -193zM451 1182q0 -77 21.5 -127.5t84.5 -130.5q90 61 131 121t41 141q0 67 -38 115.5t-103 48.5q-64 0 -100.5 -48t-36.5 -120z" />
<glyph unicode="'" horiz-adv-x="503" d="M102 1561h299l-63 -535h-172z" />
<glyph unicode="(" horiz-adv-x="972" d="M123 586q0 242 25 415t75 294t134.5 192t195 102t264.5 31h43v-190h-49q-76 0 -129.5 -15t-95 -54t-66.5 -98t-41 -157.5t-22 -221t-6 -298.5t6 -298t22 -220t41 -156.5t66.5 -97.5t95 -53.5t129.5 -14.5h49v-190h-43q-154 0 -264.5 31t-195 101.5t-134.5 191t-75 293 t-25 413.5z" />
<glyph unicode=")" horiz-adv-x="972" d="M113 -254h49q76 0 129.5 14.5t95 53.5t66.5 97.5t41 156.5t22 220t6 298t-6 298.5t-22 221t-41 157.5t-66.5 98t-95 54t-129.5 15h-49v190h43q154 0 264.5 -31t195 -102t134.5 -192t75 -294t25 -415q0 -241 -25 -413.5t-75 -293t-134.5 -191t-195 -101.5t-264.5 -31h-43 v190z" />
<glyph unicode="*" horiz-adv-x="675" d="M10 1327q111 27 160 43q-16 16 -48 41.5t-56 43.5l-23 18l123 145q80 -82 117 -117l24 160l189 -37q-31 -107 -41 -158l151 60l60 -180q-107 -27 -156 -43l127 -103l-129 -141q-78 77 -117 112l-22 -159l-189 37q33 108 43 157l-153 -59z" />
<glyph unicode="+" horiz-adv-x="1304" d="M90 598v217h438v453h226v-453h436v-217h-436v-451h-226v451h-438z" />
<glyph unicode="," horiz-adv-x="552" d="M-10 -260l26 24q168 140 168 271q0 47 -24 121l-10 32l233 103l41 18l12 -43q19 -68 19 -143q0 -80 -25 -156.5t-59.5 -130.5t-82.5 -104.5t-82.5 -77.5t-70.5 -51l-31 -19z" />
<glyph unicode="-" horiz-adv-x="661" d="M82 393v238h498v-238h-498z" />
<glyph unicode="." horiz-adv-x="550" d="M82 164q0 79 57.5 135.5t136.5 56.5q80 0 136.5 -56.5t56.5 -135.5q0 -80 -57 -137.5t-136 -57.5q-78 0 -136 58t-58 137z" />
<glyph unicode="/" horiz-adv-x="940" d="M20 -41l680 1604h220l-680 -1604h-220z" />
<glyph unicode="0" horiz-adv-x="1230" d="M51 498q0 149 72 270t199 189.5t282 68.5q258 0 417 -147t159 -377q0 -238 -147 -383.5t-400 -145.5q-264 0 -423 147.5t-159 377.5zM383 498q0 -60 14 -116t42 -104.5t77 -78t113 -29.5q51 0 91.5 23.5t64 59t39 82t21 88t5.5 81.5t-6 80.5t-23.5 85.5t-44 78.5t-71 56 t-101.5 22.5q-70 0 -122 -51.5t-75.5 -124.5t-23.5 -153z" />
<glyph unicode="1" horiz-adv-x="731" d="M51 737v195l365 69h202v-1001h-315v764z" />
<glyph unicode="2" horiz-adv-x="1026" d="M51 0v186q157 68 303 155t203 142q72 69 72 150q0 55 -43 91t-129 36q-80 0 -172.5 -31t-145.5 -61l-53 -31l8 313q21 9 59.5 21.5t148.5 33.5t212 21q80 0 150 -17t130 -53t95 -100.5t35 -150.5q0 -58 -23 -114.5t-57 -100t-81 -84t-87 -67.5t-83.5 -50t-62 -31.5 t-30.5 -13.5h475v-244h-924z" />
<glyph unicode="3" horiz-adv-x="1167" d="M51 -51q8 -7 22.5 -18t61.5 -39.5t95.5 -50.5t119.5 -40t139 -18q122 0 179 53.5t57 147.5q0 92 -74.5 156.5t-187.5 64.5q-146 0 -135 4l32 221q15 4 66 4q18 0 36 1.5t49.5 6.5t57.5 17t51 29.5t39.5 48t14.5 69.5q0 35 -20 61.5t-53 40t-66 19.5t-66 6 q-60 0 -122.5 -14t-108.5 -34.5t-83.5 -40.5t-56.5 -34l-20 -14l12 354q20 9 55.5 21.5t140 33.5t203.5 21q247 0 388 -89.5t141 -242.5q0 -74 -28 -135t-64 -95.5t-83 -61t-70 -34.5t-40 -12q15 -2 29.5 -4.5t51.5 -13.5t67.5 -25.5t68 -43t63.5 -64t44 -90t18 -119.5 q0 -244 -151.5 -362.5t-423.5 -118.5q-107 0 -219 21t-171 42l-59 21v350z" />
<glyph unicode="4" horiz-adv-x="1294" d="M41 0v115l643 911h338v-807h221v-221h-221v-459h-338v461h-643zM387 219h297v436z" />
<glyph unicode="5" horiz-adv-x="1189" d="M92 -395l8 342q9 -7 24 -18t62.5 -40t94 -51.5t110 -40.5t119.5 -18q141 0 205.5 61.5t64.5 161.5q0 104 -114.5 178t-337.5 74l-127 -4l-31 20l88 731h840l-45 -284h-588l-21 -174q11 0 27 -0.5t61 -5.5t88 -13.5t100.5 -27t106.5 -44t99 -66.5t85 -91.5t57 -122.5 t22 -156q0 -80 -18.5 -148.5t-47.5 -116.5t-71.5 -87t-84 -63.5t-93 -42.5t-89.5 -26t-82 -13t-63 -5.5t-39 -0.5q-87 0 -189.5 23t-161.5 46z" />
<glyph unicode="6" horiz-adv-x="1327" d="M92 707q0 132 29.5 243.5t77.5 190t114 140.5t135 100t145 62.5t139.5 34t121.5 9.5q87 0 166 -16t115 -32l36 -16l15 -290l-11.5 11.5t-36.5 25.5t-64 32t-95.5 25.5t-128.5 11.5q-88 0 -165 -33t-127.5 -86t-79.5 -119.5t-29 -134.5q0 -4 8 0q3 1 24.5 15t45.5 26.5 t59.5 26.5t82 22.5t97.5 8.5q80 0 147.5 -15t128 -51t102.5 -91t66.5 -139.5t24.5 -191.5q0 -115 -38 -206.5t-96 -145.5t-134 -90t-145.5 -49t-137.5 -13q-82 0 -158 17.5t-157.5 67.5t-140.5 129t-97.5 212.5t-38.5 307.5zM449 550q0 -13 3.5 -51.5t10.5 -73t22.5 -77 t37.5 -73t58 -51.5t81 -21t81 14.5t57.5 39t36.5 52t21.5 60.5t9 56t2.5 46q0 35 -7.5 74t-26.5 85.5t-60.5 76.5t-99.5 30q-50 0 -92 -17t-66 -41.5t-40.5 -49t-22.5 -41.5l-6 -17v-21z" />
<glyph unicode="7" horiz-adv-x="995" d="M20 713v288h975v-202l-499 -1241h-299l465 1155h-642z" />
<glyph unicode="8" horiz-adv-x="1298" d="M92 389q0 52 18 99.5t44.5 81t64 63.5t68 47.5t66 32.5t48 19t23.5 7q-14 7 -20.5 10.5t-40.5 24t-57 39t-57.5 52t-56 66.5t-37.5 78.5t-16 92.5q0 85 45 158.5t119.5 123t169.5 77.5t195 28q226 0 366 -99t140 -260q0 -81 -30 -147t-69.5 -103t-86.5 -63.5t-72.5 -34.5 t-36.5 -10q12 -4 24 -9t47.5 -23t65 -37t66.5 -51.5t62.5 -66.5t43.5 -81.5t18 -97.5q0 -433 -583 -433q-122 0 -223.5 34t-168 92t-103 132.5t-36.5 157.5zM449 397q0 -97 54 -155t128 -58q14 0 34 2.5t51.5 13t56 27.5t43 49.5t18.5 75.5q0 48 -24.5 95t-60 80.5t-71 60 t-60.5 40.5l-24 13q-6 -4 -15.5 -10.5t-34.5 -30t-44.5 -49.5t-35 -68t-15.5 -86zM508 1135q0 -53 20 -100.5t48 -78.5t56 -54t48 -34l20 -10q5 4 14 10.5t31 30.5t39 50.5t31 69t14 87.5q0 35 -7 65.5t-23.5 60.5t-50 48t-80.5 18q-76 0 -118 -47t-42 -116z" />
<glyph unicode="9" horiz-adv-x="1294" d="M92 565q0 92 40.5 176t111 147t172.5 100.5t219 37.5q263 0 415 -181.5t152 -486.5q0 -179 -46.5 -333t-133.5 -267.5t-219 -178t-295 -64.5q-98 0 -199 17.5t-153 35.5l-52 18l17 303q6 -5 18 -13t51.5 -28.5t81.5 -36.5t105.5 -29t126.5 -13q80 0 148 37.5t108.5 93.5 t63 115t22.5 108q-19 -11 -53 -25t-108.5 -32.5t-143.5 -18.5q-217 0 -333 140.5t-116 377.5zM430 569q0 -114 52 -185t157 -71q42 0 79.5 9t61.5 21.5t41.5 25t24.5 21.5l8 9q0 114 -17.5 194.5t-50.5 124.5t-74 63.5t-94 19.5q-96 0 -142 -60.5t-46 -171.5z" />
<glyph unicode=":" horiz-adv-x="550" d="M82 164q0 79 57.5 135.5t136.5 56.5q80 0 136.5 -56.5t56.5 -135.5q0 -80 -57 -137.5t-136 -57.5q-78 0 -136 58t-58 137zM82 811q0 79 58 136t136 57q80 0 136.5 -57t56.5 -136q0 -80 -57 -137.5t-136 -57.5q-78 0 -136 58t-58 137z" />
<glyph unicode=";" horiz-adv-x="552" d="M-10 -260l28 24q166 138 166 271q0 53 -22 121l-12 32l233 103l41 18l12 -43q19 -68 19 -143q0 -80 -25 -156.5t-59.5 -130.5t-82.5 -104.5t-82.5 -77.5t-70.5 -51l-31 -19zM94 811q0 79 58 136t137 57t135.5 -56.5t56.5 -136.5t-56.5 -137.5t-135.5 -57.5 q-78 0 -136.5 58t-58.5 137z" />
<glyph unicode="&#x3c;" horiz-adv-x="1236" d="M82 498v116l1073 494v-219l-729 -332l729 -334v-223z" />
<glyph unicode="=" horiz-adv-x="1304" d="M102 385v217h1100v-217h-1100zM102 811v217h1100v-217h-1100z" />
<glyph unicode="&#x3e;" horiz-adv-x="1236" d="M82 0v223l729 334l-729 332v219l1073 -494v-116z" />
<glyph unicode="?" horiz-adv-x="983" d="M94 1212l25 285q42 11 134 24t144 13q86 0 154 -9.5t129.5 -33t102 -62t64 -99t23.5 -140.5q0 -79 -38.5 -156.5t-95.5 -142t-115.5 -127t-106 -135.5t-59.5 -144l-256 -36q0 74 24 146t60.5 126.5t79 113t79 106.5t60.5 105t24 111q0 50 -34.5 76.5t-98.5 26.5 q-131 0 -299 -48zM127 164q0 79 58 135.5t137 56.5q80 0 136 -56t56 -136t-56.5 -137.5t-135.5 -57.5q-78 0 -136.5 58t-58.5 137z" />
<glyph unicode="@" horiz-adv-x="1665" d="M82 457q0 168 58.5 314t161 250t248.5 163t316 59q156 0 289 -50t227 -138t147.5 -213t53.5 -271q0 -233 -108 -380.5t-293 -147.5q-68 0 -120.5 33t-72.5 78q-40 -33 -67.5 -53t-75.5 -40t-92 -20q-103 0 -170.5 61t-67.5 172q0 241 422 314v67q0 54 -21 76.5t-65 22.5 q-50 0 -86.5 -20t-36.5 -58q0 -15 6 -33q-188 -51 -196 -51q-11 44 -11 90q0 99 101 165t237 66q134 0 206.5 -63.5t72.5 -190.5v-346q0 -60 20.5 -83t57.5 -23q54 0 97.5 94.5t43.5 249.5q0 243 -132.5 375.5t-365.5 132.5q-117 0 -218 -41t-176 -116.5t-118 -190 t-43 -254.5q0 -271 151.5 -430.5t401.5 -159.5q170 0 297 63l23 -184q-151 -63 -318 -63q-175 0 -322.5 58t-248.5 160.5t-157 245.5t-56 310zM729 283q0 -29 16.5 -48.5t47.5 -19.5q57 0 145 88v137q-101 -19 -155 -55.5t-54 -101.5z" />
<glyph unicode="A" horiz-adv-x="1529" d="M10 0l514 1497h434l572 -1497h-377l-156 420h-512l-127 -420h-348zM559 659h354l-192 529z" />
<glyph unicode="B" horiz-adv-x="1433" d="M164 0v1485h526q32 0 55.5 -0.5t72 -3.5t85.5 -9t87.5 -18t88 -28t77.5 -42.5t65.5 -59t42 -78.5t16.5 -101q0 -66 -16.5 -121.5t-41 -91.5t-58.5 -64t-63.5 -43t-61.5 -25t-47.5 -12.5t-26.5 -3.5q14 -2 32 -5t56.5 -13.5t73 -25.5t74.5 -42t68.5 -61t48 -85.5 t19.5 -111.5q0 -114 -41.5 -200.5t-116 -138.5t-169 -77.5t-207.5 -25.5zM532 221q64 -14 136 -14q299 0 299 225q0 50 -15 88.5t-43 61t-57 37t-69.5 20.5t-67.5 8t-62 2q-63 0 -121 -4v-424zM532 864q50 -4 107 -4q43 0 74 3t70.5 16.5t65 36.5t43 67.5t17.5 106.5 q0 188 -247 188q-56 0 -130 -8v-406z" />
<glyph unicode="C" horiz-adv-x="1513" d="M72 774q0 141 47 263.5t126 209.5t182.5 149.5t217 93t227.5 30.5q101 0 196.5 -11t159 -27t112 -32.5t71.5 -27.5l23 -11l-50 -299q-8 6 -24 16t-67.5 36t-106 46t-137.5 36t-166 16q-85 0 -158.5 -28t-125 -75t-88 -108.5t-54 -127.5t-17.5 -132q0 -160 57.5 -284 t171.5 -195.5t269 -71.5q73 0 151.5 21t139 51.5t110.5 61t77 51.5l26 21v-319q-7 -6 -21 -16.5t-64.5 -37t-110 -47t-159 -37t-210.5 -16.5q-84 0 -166.5 15t-162.5 47t-150.5 78.5t-130.5 112.5t-103 146t-67.5 183t-24.5 219z" />
<glyph unicode="D" horiz-adv-x="1572" d="M164 0v1485q91 4 381 4q316 0 475 -55q78 -27 145 -65t130 -95.5t107.5 -128t71.5 -166.5t27 -207q0 -125 -26 -230.5t-71.5 -183.5t-111.5 -140t-142.5 -102.5t-168 -66.5t-184 -37.5t-193.5 -11.5h-440zM532 242q62 -15 136 -15q465 0 465 541q0 88 -19 161.5 t-49.5 124t-73.5 89.5t-87 61.5t-93.5 37t-89 19.5t-78.5 5q-84 0 -111 -4v-1020z" />
<glyph unicode="E" horiz-adv-x="1189" d="M164 0v1485h938v-250h-570v-338h494v-246h-494v-401h617v-250h-985z" />
<glyph unicode="F" horiz-adv-x="1148" d="M164 0v1485h944v-250h-576v-356h496v-242h-496v-637h-368z" />
<glyph unicode="G" horiz-adv-x="1517" d="M72 774q0 130 36.5 242t99.5 191.5t143.5 141t172.5 98t181.5 55t175.5 18.5q93 0 183 -11t151.5 -27t110 -31.5t72.5 -26.5l23 -11l-47 -297q-9 6 -25 16t-68 35t-105.5 44t-132 35t-152.5 16q-88 0 -160.5 -25t-120 -67t-82.5 -92.5t-53 -107.5t-26.5 -105t-8.5 -91 q0 -38 3.5 -78t16 -95.5t32 -104.5t55.5 -99t83 -85.5t117.5 -58t155.5 -22.5q84 0 174 23v401h369v-530q-7 -6 -21.5 -16.5t-66 -36.5t-111 -46t-156 -36.5t-200.5 -16.5q-140 0 -263 32t-225 98t-176 160.5t-114.5 225t-40.5 285.5z" />
<glyph unicode="H" horiz-adv-x="1581" d="M164 0v1485h368v-588h517v588h368v-1485h-368v647h-517v-647h-368z" />
<glyph unicode="I" horiz-adv-x="696" d="M164 0v1485h368v-1485h-368z" />
<glyph unicode="J" horiz-adv-x="872" d="M-20 12v330q9 -8 27 -20.5t77.5 -33t124.5 -20.5q78 0 114.5 47.5t36.5 147.5v1022h369v-1045q0 -94 -18.5 -168.5t-46.5 -122.5t-72 -83t-82.5 -52.5t-91 -27t-85 -11.5t-75.5 -2q-70 0 -139.5 9.5t-104.5 19.5z" />
<glyph unicode="K" horiz-adv-x="1546" d="M164 0v1485h368v-643l517 643h436l-565 -643l628 -842h-454l-414 578l-148 -166v-412h-368z" />
<glyph unicode="L" horiz-adv-x="1122" d="M164 0v1485h368v-1235h570v-250h-938z" />
<glyph unicode="M" horiz-adv-x="1935" d="M158 0l30 1485h392l317 -776q60 -150 72 -191q11 54 61 180l307 787h406l39 -1485h-357l-10 688q-1 26 -0.5 58t1.5 68t2 64.5t2 49.5l1 20l-102 -260l-289 -682h-192l-267 682q-85 217 -96 260l1 -18q0 -18 0.5 -47t1 -62.5t1 -70.5t0.5 -66l-2 -684h-319z" />
<glyph unicode="N" horiz-adv-x="1712" d="M164 0v1485h291l731 -875v875h342v-1495h-242l-780 925v-915h-342z" />
<glyph unicode="O" d="M72 743q0 174 61.5 321t169 246.5t253.5 154.5t314 55q162 0 308 -55.5t255.5 -154.5t173.5 -246t64 -321q0 -176 -60.5 -321.5t-167.5 -243.5t-254 -151.5t-319 -53.5q-154 0 -297.5 54t-255 150.5t-178.5 244t-67 321.5zM440 743q0 -102 36 -197t95 -164t138 -110 t161 -41q136 0 236 70.5t148.5 185t48.5 256.5q0 138 -56.5 257t-156.5 190.5t-220 71.5q-99 0 -181 -42t-136 -113t-83.5 -165t-29.5 -199z" />
<glyph unicode="P" horiz-adv-x="1357" d="M164 0v1485h569q71 0 143.5 -12.5t149.5 -45t136 -81t96.5 -126.5t37.5 -176q0 -99 -33 -182t-87.5 -139t-126 -95t-147 -57t-152.5 -18q-106 0 -218 10v-563h-368zM532 780q52 -10 109 -10q28 0 59 4.5t74 21t76 43t56.5 75t23.5 112.5t-23 113t-54.5 74.5t-73 41 t-71 19.5t-55.5 4q-66 0 -121 -10v-488z" />
<glyph unicode="Q" horiz-adv-x="1722" d="M72 745q0 232 105 410t283.5 271.5t399.5 93.5q158 0 301.5 -55t252 -153.5t173 -246t64.5 -320.5q0 -272 -135.5 -463t-366.5 -268q8 -12 21 -28.5t56 -55t91.5 -67t128.5 -51.5t168 -23l-31 -289q-47 0 -116 12.5t-166 46t-187.5 84t-178 136.5t-140.5 192 q-143 12 -273 71t-230.5 156t-160 239t-59.5 308zM432 745q0 -103 36 -198.5t95 -164.5t137 -110t160 -41q134 0 233 70.5t148 185.5t49 258q0 137 -56.5 255.5t-156 190t-217.5 71.5q-129 0 -228 -72t-149.5 -189t-50.5 -256z" />
<glyph unicode="R" horiz-adv-x="1454" d="M164 0v1485q146 2 436 2q163 0 286 -21.5t215.5 -69.5t140.5 -129.5t48 -195.5q0 -87 -28 -161t-68 -118t-80 -75t-68 -43l-28 -12l166 -281q24 -39 53 -66t53.5 -37.5t46 -15t33.5 -3.5l12 1l-43 -272q-63 -4 -110 -4q-87 0 -142 22q-100 40 -163 148l-254 434l-138 4 v-592h-368zM532 807q9 0 45.5 -1t65.5 -1q138 0 207.5 66t69.5 169q0 58 -23.5 101t-54.5 64.5t-74 34t-70 15t-55 2.5t-56 -1.5t-41 -3.5l-14 -1v-444z" />
<glyph unicode="S" horiz-adv-x="1187" d="M72 1098q0 127 72.5 224t199 147.5t287.5 50.5q116 0 221 -17t152 -34l47 -17l-37 -301q-8 4 -22 11.5t-57 25.5t-86 32t-103 25.5t-113 11.5q-57 0 -97 -14.5t-58.5 -38t-26 -44.5t-7.5 -42q0 -30 15 -58t35 -48t54.5 -42.5t59.5 -35.5t64.5 -32t56.5 -28 q143 -77 190 -110q142 -100 175 -242q12 -49 12 -106q0 -66 -18.5 -128t-62.5 -120t-109.5 -100.5t-165.5 -68.5t-224 -26q-128 0 -238.5 18t-157.5 36l-46 18l39 334q6 -5 17.5 -14t50 -32t80.5 -40.5t108.5 -32t134.5 -14.5q215 0 215 164q0 27 -16 53t-38 45.5t-59 42 t-65.5 36t-72 34t-64.5 30.5q-82 41 -135.5 76.5t-105 88.5t-76.5 122.5t-25 159.5z" />
<glyph unicode="T" horiz-adv-x="1316" d="M20 1235v250h1276v-250h-452v-1235h-369v1235h-455z" />
<glyph unicode="U" horiz-adv-x="1650" d="M164 530v955h368v-920q0 -59 14.5 -112t47 -103t95.5 -80t149 -30q58 0 104.5 18t76 48.5t50 65.5t31 73t14.5 66.5t4 51.5v922h369v-950q0 -40 -4.5 -81t-21.5 -99t-44 -108t-77 -102t-116 -88.5t-165.5 -60t-220.5 -23.5t-221.5 22.5t-168.5 58.5t-121 86t-83 100.5 t-49 106.5t-25 99.5t-6 83.5z" />
<glyph unicode="V" horiz-adv-x="1579" d="M10 1485h393l322 -856q19 -52 38.5 -111t29.5 -92l10 -33q51 141 84 225l330 867h352l-608 -1485h-343z" />
<glyph unicode="W" horiz-adv-x="2203" d="M10 1485h379l260 -809q11 -38 60 -232q0 1 6 33t12.5 67.5t14.5 74t12 55.5l221 839h280l269 -847q33 -110 47 -181q45 180 47 187l225 813h350l-462 -1495h-318l-291 899l-243 -897h-344z" />
<glyph unicode="X" horiz-adv-x="1560" d="M-10 0l565 758l-516 727h416l336 -486l342 486h383l-539 -713l545 -772h-416l-361 522l-372 -522h-383z" />
<glyph unicode="Y" horiz-adv-x="1409" d="M0 1485h393l332 -633l328 633h356l-518 -901v-584h-369v555z" />
<glyph unicode="Z" horiz-adv-x="1335" d="M41 0v221l795 1008h-750v256h1188v-275l-772 -954h813v-256h-1274z" />
<glyph unicode="[" horiz-adv-x="653" d="M82 -444v2046h551v-152h-260v-1741h260v-153h-551z" />
<glyph unicode="\" horiz-adv-x="940" d="M20 1563h220l680 -1604h-220z" />
<glyph unicode="]" horiz-adv-x="653" d="M20 -291h261v1741h-261v152h551v-2046h-551v153z" />
<glyph unicode="^" horiz-adv-x="1310" d="M102 694l412 791h289l405 -791h-268l-283 574l-292 -574h-263z" />
<glyph unicode="_" horiz-adv-x="1024" d="M-10 0h1044v-166h-1044v166z" />
<glyph unicode="`" horiz-adv-x="819" d="M180 1419h305l154 -319h-178z" />
<glyph unicode="a" horiz-adv-x="1054" d="M61 225q0 56 29.5 104.5t76 81t103 59t113.5 42t103.5 26t75.5 14.5l30 3q2 12 2 131q0 15 -3.5 30t-12.5 33.5t-29 30t-49 11.5q-59 0 -89 -31t-30 -70q0 -22 10 -39l-280 -57q-15 50 -15 90q0 122 111 199q51 36 151 70t224 34q74 0 132.5 -13.5t95 -32.5t63.5 -49.5 t39.5 -55t19 -58.5t7.5 -50t1 -40q0 -29 -4 -150.5t-4 -179.5q0 -48 12.5 -84t28.5 -54.5t35.5 -29.5t30 -13.5t14.5 -2.5l-199 -201q-47 13 -86 33t-61 39.5t-37.5 37t-21.5 27.5l-5 11q-4 -6 -11.5 -16t-34 -35.5t-55.5 -45t-75.5 -35.5t-95.5 -16q-50 0 -101 13t-99.5 40 t-79 79t-30.5 120zM387 270q0 -35 22.5 -63.5t67.5 -28.5q24 0 44.5 7.5t33 18.5t21.5 22t12 18l4 8v166q-8 -1 -22 -2.5t-49.5 -11.5t-62.5 -24.5t-49 -43.5t-22 -66z" />
<glyph unicode="b" horiz-adv-x="1179" d="M115 29q10 96 10 211v1296l336 61v-677q50 29 123 48t137 19q106 0 186 -38.5t127 -107t70.5 -153.5t23.5 -186q0 -117 -37 -211t-95 -152t-136.5 -96.5t-155 -54t-155.5 -15.5q-282 0 -434 56zM461 231q34 -6 88 -6q42 0 84 14t80.5 42t63 79t24.5 117q0 73 -21 126.5 t-56 81t-72.5 40t-78.5 12.5q-54 0 -112 -28v-478z" />
<glyph unicode="c" horiz-adv-x="991" d="M51 492q0 217 145 356t377 139q88 0 166.5 -9.5t112.5 -18.5l35 -9l-21 -274q-13 10 -35 25.5t-86 41t-122 25.5q-116 0 -181 -61.5t-65 -210.5q0 -52 14 -101.5t41.5 -92.5t75.5 -69t110 -26q54 0 125.5 26t116.5 52l45 26l45 -219q-8 -5 -22.5 -13t-59.5 -28.5 t-91.5 -36t-112.5 -28.5t-127 -13q-70 0 -135 14.5t-130.5 51.5t-113 93.5t-77.5 149t-30 210.5z" />
<glyph unicode="d" horiz-adv-x="1183" d="M51 477q0 112 35.5 202.5t89.5 146.5t122.5 93.5t130 52.5t116.5 15q80 0 180 -14v563l336 61v-1597h-318v82q-36 -39 -108.5 -74t-171.5 -35q-48 0 -101 16.5t-109 55.5t-100.5 95.5t-73 144t-28.5 192.5zM387 504q0 -54 12 -99.5t37 -83.5t68 -59.5t100 -21.5 q32 0 67 9.5t54 22.5v451q-40 16 -119 16q-96 0 -157.5 -68t-61.5 -167z" />
<glyph unicode="e" horiz-adv-x="1015" d="M51 500q0 88 32 173t90.5 156t153 114.5t208.5 43.5q196 0 302.5 -97.5t106.5 -266.5q0 -88 -10 -146h-559q0 -79 24.5 -137.5t63.5 -88t77.5 -43t77.5 -13.5q73 0 151.5 26t133.5 60l25 -211q-182 -97 -387 -97q-78 0 -148.5 18t-133.5 58.5t-109 100.5t-72.5 150 t-26.5 200zM383 637h233q1 14 1 28q0 68 -30 106q-36 46 -89 46q-42 0 -78.5 -47.5t-36.5 -132.5z" />
<glyph unicode="f" horiz-adv-x="811" d="M0 772l31 189h123v229q0 98 25.5 173t66.5 120.5t98.5 74.5t115.5 39.5t124 10.5q91 0 178 -19t131 -37v-276q-135 80 -242 80q-162 0 -162 -199v-196h322l-29 -189h-293v-772h-335v772h-154z" />
<glyph unicode="g" horiz-adv-x="1153" d="M31 -182q0 138 174 221q-62 40 -62 129q0 59 34.5 98t117.5 86q-86 27 -144.5 103.5t-58.5 175.5q0 82 35.5 150t97 112.5t142 69t170.5 24.5q101 0 190 -26h395l-22 -166h-168q51 -73 51 -162q0 -165 -126.5 -261t-319.5 -96q-41 0 -84 9q-68 -48 -68 -82q0 -33 45 -44 t154 -14q60 -2 92.5 -3.5t89 -8.5t89.5 -18.5t75 -33.5t64.5 -52t38.5 -77t16 -106q0 -62 -28.5 -118t-87.5 -103.5t-163 -75.5t-242 -28q-233 0 -365 79t-132 218zM328 -160q0 -49 21.5 -82t57 -47t63.5 -19t58 -5q83 0 141 39t58 96q0 40 -27.5 67t-72.5 38.5t-81.5 15.5 t-74.5 4q-85 0 -114 -25.5t-29 -81.5zM424 631q0 -182 113 -182q112 0 112 182q0 97 -27.5 139.5t-84.5 42.5t-85 -42.5t-28 -139.5z" />
<glyph unicode="h" horiz-adv-x="1236" d="M113 0v1536l336 61v-753q9 10 33.5 29.5t66.5 47t101 47t116 19.5q73 0 135.5 -18.5t113.5 -56.5t80 -101.5t29 -146.5v-664h-336v565q0 88 -34.5 132t-116.5 44q-50 0 -97 -25t-69 -50l-22 -25v-641h-336z" />
<glyph unicode="i" horiz-adv-x="581" d="M100 1303q0 78 55.5 133t133.5 55q77 0 132.5 -55t55.5 -133t-55.5 -133.5t-132.5 -55.5q-78 0 -133.5 55.5t-55.5 133.5zM123 0v926l336 61v-987h-336z" />
<glyph unicode="j" horiz-adv-x="581" d="M-135 -166q32 -16 112 -16q32 0 56.5 10.5t45.5 36.5t32.5 77t11.5 124v860l336 61v-917q0 -78 -10.5 -147.5t-41.5 -143.5t-79.5 -127t-131.5 -87t-192 -34q-32 0 -63 6t-45 11l-15 6zM100 1303q0 78 55.5 133t133.5 55t133 -55t55 -133t-55 -133.5t-133 -55.5 t-133.5 55.5t-55.5 133.5z" />
<glyph unicode="k" horiz-adv-x="1171" d="M113 0v1536l336 61v-956l325 320h363l-367 -334l422 -627h-418l-244 416l-81 -68v-348h-336z" />
<glyph unicode="l" horiz-adv-x="561" d="M113 0v1536l336 61v-1597h-336z" />
<glyph unicode="m" horiz-adv-x="1814" d="M113 0v926l313 61v-149q149 149 340 149q82 0 156 -38t116 -111q69 68 165 108.5t188 40.5q59 0 113 -19.5t99 -57.5t72 -102t27 -146v-662h-336v586q0 180 -113 180q-41 0 -88.5 -25t-85.5 -65v-676h-336v586q0 180 -114 180q-41 0 -91 -31.5t-89 -75.5v-659h-336z" />
<glyph unicode="n" horiz-adv-x="1243" d="M113 0v926l315 61v-174q24 28 52.5 53t72 55t101 48t118.5 18q71 0 134 -19.5t114 -57.5t80.5 -102t29.5 -146v-662h-335v586q0 76 -40.5 117.5t-103.5 41.5q-56 0 -110 -29.5t-92 -86.5v-629h-336z" />
<glyph unicode="o" horiz-adv-x="1157" d="M51 477q0 155 70.5 272t190 177.5t268.5 60.5q227 0 376.5 -139t149.5 -371q0 -154 -70 -269.5t-189 -175t-267 -59.5q-149 0 -268.5 59.5t-190 175t-70.5 269.5zM379 479q0 -125 57.5 -208t143.5 -83q85 0 141.5 83t56.5 208q0 126 -56.5 209.5t-141.5 83.5 q-86 0 -143.5 -83.5t-57.5 -209.5z" />
<glyph unicode="p" horiz-adv-x="1177" d="M113 -455v1381l325 61v-106q11 11 27.5 23.5t51.5 34t86 35t106 13.5t111 -15.5t111.5 -52.5t98.5 -91t69.5 -138t26.5 -186q0 -110 -31.5 -201.5t-82 -151t-115.5 -101t-129 -59.5t-125 -18q-114 0 -194 11v-439h-336zM449 195q24 -11 81 -11q30 0 61.5 6t69.5 24.5 t66.5 46.5t48 77t19.5 111t-17.5 109.5t-42.5 73t-57.5 41.5t-56.5 20.5t-46 4.5q-30 0 -61.5 -8t-47.5 -16l-17 -8v-471z" />
<glyph unicode="q" horiz-adv-x="1169" d="M51 461q0 116 33 210.5t83 151.5t114 95.5t120.5 53.5t106.5 15q98 0 176.5 -31t126.5 -69l82 88h164v-1430h-336v475q-139 -47 -236 -47q-111 0 -196 39.5t-136 108t-76.5 154.5t-25.5 186zM406 485q0 -73 18 -126.5t48 -81t63 -40t71 -12.5q55 0 115 29v440 q-5 4 -13.5 10.5t-37 17.5t-58.5 11q-85 0 -145.5 -60t-60.5 -188z" />
<glyph unicode="r" horiz-adv-x="796" d="M113 0v926l313 61v-151q91 147 248 151q45 0 123 -16l-33 -262q-62 39 -133 39q-118 0 -182 -82v-666h-336z" />
<glyph unicode="s" horiz-adv-x="856" d="M61 676q0 135 114 223t312 88q70 0 136 -14.5t97 -28.5l30 -14l-2 -242q-135 88 -248 88q-67 0 -93 -25t-26 -57q0 -20 10.5 -36.5t34.5 -31t45 -24.5t59.5 -25.5t59.5 -25.5q112 -51 158.5 -110.5t46.5 -151.5q0 -146 -113 -231t-301 -85q-179 0 -315 78l47 209 q53 -33 124.5 -54.5t129.5 -21.5q49 0 78.5 18t29.5 54q0 27 -20.5 48.5t-45 33t-73 31.5t-76.5 34q-48 24 -79 44.5t-61 52.5t-44.5 75.5t-14.5 100.5z" />
<glyph unicode="t" horiz-adv-x="796" d="M0 772l29 189h145v124l336 230v-354h281l-31 -189h-250v-309q0 -138 30.5 -192t127.5 -54q31 0 71.5 7t57.5 14l-166 -258q-61 -7 -96 -7q-37 0 -78.5 8t-93.5 32.5t-92.5 62.5t-68.5 105.5t-28 154.5v436h-174z" />
<glyph unicode="u" horiz-adv-x="1249" d="M113 299v627l336 61v-661q0 -125 120 -125q51 0 125 33.5t107 80.5v611l336 61v-987h-314v131q-68 -72 -176.5 -115t-204.5 -43q-64 0 -121.5 19.5t-105 58t-75 102.5t-27.5 146z" />
<glyph unicode="v" horiz-adv-x="1200" d="M0 961h348l191 -549q35 -102 55 -181q0 3 7.5 30t21.5 70.5t28 80.5l207 549h342l-452 -971h-363z" />
<glyph unicode="w" horiz-adv-x="1677" d="M0 961h332l139 -541q9 -34 16 -66t11 -51t4 -20q0 17 35 133l157 536h326l137 -532q9 -35 16.5 -68t10.5 -48t4 -17q18 74 49 174l145 500h297l-354 -971h-326l-131 446q-8 26 -21.5 80t-15.5 66q-15 -73 -40 -148l-150 -444h-317z" />
<glyph unicode="x" horiz-adv-x="1105" d="M14 0l355 485l-334 476h360l174 -269l187 269h340l-355 -461l342 -500h-352l-182 293l-207 -293h-328z" />
<glyph unicode="y" horiz-adv-x="1105" d="M0 961h360l136 -398l92 -297q51 183 80 283l118 412h320q-250 -734 -328 -945q-14 -40 -27 -71t-40 -86.5t-55.5 -97.5t-72.5 -90.5t-92 -80.5t-113 -53.5t-136 -21.5q-50 0 -100 8t-74 16l-25 8l10 269q6 -5 18 -12.5t53.5 -20t88.5 -12.5q39 0 70.5 13.5t60.5 45 t42.5 50.5t41.5 63z" />
<glyph unicode="z" horiz-adv-x="972" d="M41 0v164q319 414 358 459l107 120h-434v218h858v-146q-371 -456 -398 -491q-11 -16 -34 -43t-40 -47l-18 -19q47 2 84 2h408v-217h-891z" />
<glyph unicode="{" horiz-adv-x="628" d="M10 496v159q56 25 85.5 50t47 73.5t17.5 126.5v369q0 68 10 120t31.5 88t50 59.5t69.5 37t85 18.5t102 5h100v-154h-37q-76 0 -103.5 -48t-27.5 -169v-354q0 -132 -36.5 -201.5t-141.5 -100.5q106 -30 142 -101t36 -200v-348q0 -111 24 -154.5t99 -60.5l45 -6v-149h-96 q-90 0 -149.5 12.5t-108 47t-71.5 101t-23 168.5v361q0 114 -33.5 165t-116.5 85z" />
<glyph unicode="|" horiz-adv-x="649" d="M225 -446v2252h199v-2252h-199z" />
<glyph unicode="}" horiz-adv-x="628" d="M20 -295q28 2 46 6q75 17 98.5 60.5t23.5 154.5v348q0 128 36.5 199.5t142.5 101.5q-105 31 -142 100.5t-37 201.5v354q0 121 -27.5 169t-103.5 48h-37v154h101q58 0 102 -5t85 -18.5t69.5 -37t50 -59.5t31.5 -88t10 -120v-369q0 -114 33 -164t116 -86v-159 q-83 -34 -116 -84.5t-33 -165.5v-361q0 -102 -23 -168.5t-71.5 -101t-108 -47t-149.5 -12.5h-97v149z" />
<glyph unicode="~" horiz-adv-x="1304" d="M102 569v230q124 82 250 82q79 0 161.5 -19t141.5 -42.5t136.5 -42.5t148.5 -19q125 0 262 82v-224q-116 -81 -256 -81q-73 0 -152 19t-138.5 42t-142 42t-161.5 19q-119 0 -250 -88z" />
<glyph unicode="&#xa1;" horiz-adv-x="587" d="M86 -440l80 979l252 86l82 -987zM100 913q0 80 57 137.5t136 57.5q78 0 136 -58t58 -137t-57.5 -135.5t-136.5 -56.5q-80 0 -136.5 56.5t-56.5 135.5z" />
<glyph unicode="&#xa2;" horiz-adv-x="960" d="M61 461q0 224 142 369t379 145q35 0 51 -2l69 180l164 -61l-55 -142q14 -3 26.5 -6.5t21.5 -6t11 -3.5l-2 -242q-4 2 -20 11.5t-29 16.5t-36.5 16.5t-49.5 15.5l-221 -568q36 -8 80 -8q71 0 154.5 33t148.5 76l25 -211q-174 -103 -377 -103q-45 0 -109 11l-59 -154 l-164 57l61 160q-98 60 -154.5 165t-56.5 251zM319 473q0 -112 48 -186l186 479q-109 -8 -171.5 -83.5t-62.5 -209.5z" />
<glyph unicode="&#xa3;" horiz-adv-x="1245" d="M72 184q0 100 63 166t166 66q62 0 121 -19q-5 122 -51 308h-271l72 186h156q-23 112 -23 213q0 195 126 306.5t337 111.5q89 0 171 -17.5t119 -33.5t62 -31l-28 -279q-49 47 -130.5 86t-162.5 39q-116 0 -164.5 -57.5t-48.5 -159.5q0 -68 20 -178h412l-72 -186h-307 q23 -161 23 -283q0 -58 -11 -129q77 -40 143 -62t142 -22q43 0 84.5 10.5t70.5 25t52 29t34 24.5l11 11l16 -258q-13 -9 -37 -22.5t-93.5 -35.5t-133.5 -22q-191 0 -373 113q-93 -113 -264 -113q-39 0 -78 12t-74 36t-57 67t-22 98zM266 178q0 -49 53 -49q54 0 80 66 q-46 24 -77 24q-56 0 -56 -41z" />
<glyph unicode="&#xa4;" horiz-adv-x="1304" d="M106 313l158 158q-76 120 -76 256q0 130 70 244l-152 151l142 144l151 -152q113 74 250 74q138 0 256 -78l152 154l143 -142l-156 -155q68 -111 68 -240q0 -136 -76 -252l164 -162l-143 -141l-164 164q-116 -68 -234 -68q-144 0 -249 64l-162 -162zM420 727 q0 -106 61.5 -177t167.5 -71q102 0 166 72t64 176q0 105 -63 175.5t-167 70.5q-103 0 -166 -71t-63 -175z" />
<glyph unicode="&#xa5;" horiz-adv-x="1435" d="M41 1485h346l340 -613l334 613h334l-338 -559h182v-187h-295l-67 -114v-9h362v-186h-362v-430h-314v430h-383v186h371l-72 123h-299v187h189z" />
<glyph unicode="&#xa6;" horiz-adv-x="649" d="M225 -446v948h199v-948h-199zM225 858v948h199v-948h-199z" />
<glyph unicode="&#xa7;" horiz-adv-x="929" d="M113 805q0 61 28 132.5t92 131.5q-59 80 -59 182q0 54 17.5 102.5t55 91t107 68t164.5 25.5q67 0 136.5 -20t119.5 -56l-6 -205q-121 107 -254 107q-119 0 -119 -90q0 -37 15.5 -69t66.5 -75l141 -120q111 -96 155 -166t44 -154q0 -62 -29 -133.5t-92 -130.5 q60 -82 60 -182q0 -54 -17.5 -102.5t-55 -91t-107 -68t-164.5 -25.5q-67 0 -136.5 20t-119.5 56l6 205q121 -107 254 -107q119 0 119 90q0 37 -15.5 69t-66.5 75l-142 120q-111 96 -154.5 166t-43.5 154zM334 840q0 -48 20 -89t84 -96l117 -98q41 45 41 98q0 48 -20 89 t-84 96l-117 98q-41 -48 -41 -98z" />
<glyph unicode="&#xa8;" horiz-adv-x="819" d="M49 1264q0 64 45.5 109.5t108.5 45.5q65 0 110 -45.5t45 -109.5q0 -63 -45.5 -108.5t-109.5 -45.5q-63 0 -108.5 45.5t-45.5 108.5zM459 1264q0 64 45 109.5t108 45.5q65 0 110.5 -45.5t45.5 -109.5q0 -63 -46 -108.5t-110 -45.5q-63 0 -108 45.5t-45 108.5z" />
<glyph unicode="&#xa9;" horiz-adv-x="1720" d="M82 748q0 158 61.5 302.5t165.5 248.5t248.5 165.5t302.5 61.5t302.5 -61.5t248.5 -165.5t165.5 -248.5t61.5 -302.5q0 -127 -39 -246t-111 -214.5t-168 -167.5t-214.5 -111.5t-245.5 -39.5t-245.5 39.5t-214.5 111.5t-168 167.5t-111 214.5t-39 246zM258 748 q0 -170 75.5 -313.5t214.5 -229.5t312 -86q127 0 239.5 50.5t191.5 135.5t125 200.5t46 242.5q0 170 -77.5 313.5t-216.5 229t-308 85.5t-308 -85.5t-216.5 -229t-77.5 -313.5zM444 758q0 188 125.5 308t307.5 120q163 0 266 -53l-15 -175q-35 23 -106 46.5t-137 23.5 q-117 0 -183.5 -72.5t-66.5 -197.5q0 -70 22.5 -124.5t59 -86.5t79 -48t87.5 -16q135 0 282 109l2 -180q-41 -31 -117.5 -60.5t-175.5 -29.5q-180 0 -305 120t-125 316z" />
<glyph unicode="&#xaa;" horiz-adv-x="692" d="M82 1063q0 37 17.5 68.5t48.5 53t65 37.5t76 26.5t72 16t61 9.5v51q0 80 -74 80q-39 0 -64.5 -12.5t-25.5 -34.5q0 -23 8 -35l-160 -41q-3 7 -8.5 35.5t-5.5 44.5q0 46 44 83t109.5 56t135.5 19q99 0 152 -47t53 -123v-248q0 -33 11 -54t23 -28.5t31 -13.5l-108 -97 q-75 19 -103 76q-95 -78 -166 -78q-192 0 -192 156zM258 1073q0 -51 59 -51q39 0 107 57v99q-166 -17 -166 -105z" />
<glyph unicode="&#xab;" horiz-adv-x="989" d="M102 520l187 420h215l-178 -416l174 -389h-215zM485 520l187 420h215l-178 -416l174 -389h-215z" />
<glyph unicode="&#xac;" horiz-adv-x="1429" d="M102 639v217h1246v-688h-246v471h-1000z" />
<glyph unicode="&#xad;" horiz-adv-x="661" d="M82 393v238h498v-238h-498z" />
<glyph unicode="&#xae;" horiz-adv-x="1720" d="M82 748q0 158 61.5 302.5t165.5 248.5t248.5 165.5t302.5 61.5t302.5 -61.5t248.5 -165.5t165.5 -248.5t61.5 -302.5q0 -127 -39 -246t-111 -214.5t-168 -167.5t-214.5 -111.5t-245.5 -39.5t-245.5 39.5t-214.5 111.5t-168 167.5t-111 214.5t-39 246zM258 748 q0 -170 75.5 -313.5t214.5 -229.5t312 -86q127 0 239.5 50.5t191.5 135.5t125 200.5t46 242.5q0 170 -77.5 313.5t-216.5 229t-308 85.5t-308 -85.5t-216.5 -229t-77.5 -313.5zM569 352v819q124 7 224 7q72 0 132.5 -11.5t114.5 -38.5t84.5 -78.5t30.5 -123.5 q0 -88 -46.5 -147.5t-109.5 -82.5q47 -92 91 -159q16 -25 34 -40t38 -20.5t30.5 -6.5t28.5 -1l-35 -125q-64 -2 -66 -2q-106 0 -164 80q-3 3 -59 102t-76 138h-73v-310h-179zM748 799q23 -4 65 -4q62 0 107 30.5t45 106.5q0 34 -15.5 56.5t-43.5 32.5t-53 13.5t-58 3.5h-47 v-239z" />
<glyph unicode="&#xaf;" horiz-adv-x="819" d="M61 1159v178h695v-178h-695z" />
<glyph unicode="&#xb0;" horiz-adv-x="688" d="M68 1233q0 114 81 195t195 81t195.5 -81t81.5 -195t-81.5 -195.5t-195.5 -81.5t-195 81.5t-81 195.5zM203 1233q0 -66 38 -109t103 -43t103 43t38 109t-38 108.5t-103 42.5t-103 -42.5t-38 -108.5z" />
<glyph unicode="&#xb1;" horiz-adv-x="1304" d="M102 0v205h1100v-205h-1100zM102 598v217h443v453h217v-453h440v-217h-440v-303h-217v303h-443z" />
<glyph unicode="&#xb4;" horiz-adv-x="819" d="M180 1100l154 319h305l-281 -319h-178z" />
<glyph unicode="&#xb6;" horiz-adv-x="1359" d="M41 1145q0 112 36 197.5t89.5 133.5t126 78t133 39t123.5 9h627v-2038h-201v1851h-139v-1851h-201v1063h-119q-43 0 -99 15t-123.5 53.5t-122.5 94.5t-92.5 149t-37.5 206z" />
<glyph unicode="&#xb7;" horiz-adv-x="550" d="M82 846q0 79 57.5 135.5t136.5 56.5q80 0 136.5 -56.5t56.5 -135.5q0 -80 -57 -137.5t-136 -57.5q-78 0 -136 58t-58 137z" />
<glyph unicode="&#xb8;" horiz-adv-x="819" d="M170 -414l35 123q46 -14 96 -14q45 0 71.5 16t26.5 45q0 37 -41 50.5t-125 13.5l58 180h198l-30 -98q85 -6 129.5 -42t44.5 -108q0 -83 -75 -134.5t-228 -51.5q-95 0 -160 20z" />
<glyph unicode="&#xba;" horiz-adv-x="655" d="M20 1208q0 134 89.5 223t218.5 89t218 -86t89 -215q0 -132 -89 -219t-218 -87t-218.5 84.5t-89.5 210.5zM188 1221q0 -76 38.5 -124t107.5 -48q63 0 98 46t35 119q0 74 -39.5 122t-105.5 48q-62 0 -98 -46.5t-36 -116.5z" />
<glyph unicode="&#xbb;" horiz-adv-x="989" d="M102 940h215l187 -420l-182 -385h-216l175 389zM485 940h215l187 -420l-182 -385h-216l175 389z" />
<glyph unicode="&#xbc;" horiz-adv-x="1634" d="M92 1346v127l244 36h117v-884h-213v737zM207 0l913 1518h185l-912 -1518h-186zM825 236v116l449 598h188v-555h101v-159h-101v-213h-213v213h-424zM1022 395h227v305z" />
<glyph unicode="&#xbd;" horiz-adv-x="1730" d="M92 1346v127l244 36h117v-884h-213v737zM207 0l913 1518h185l-912 -1518h-186zM995 33v86q14 19 79.5 87t121.5 130.5t104 148t48 154.5q0 59 -43.5 86t-102.5 27q-67 0 -174 -41v186q122 27 229 27q152 0 238 -64.5t86 -177.5q0 -59 -18.5 -112.5t-67.5 -116.5 t-84.5 -100.5t-118.5 -119.5l-18 -18h334v-182h-613z" />
<glyph unicode="&#xbe;" horiz-adv-x="1783" d="M102 635l2 186q91 -65 209 -65q71 0 109.5 32t38.5 89q0 53 -43 92t-148 39l9 139q70 0 106.5 36t36.5 87q0 37 -35.5 56.5t-93.5 19.5q-94 0 -187 -54v178q41 15 105 25t117 10q54 0 104 -9t101 -30t81.5 -63.5t30.5 -102.5q0 -82 -42.5 -131t-100.5 -67 q180 -61 180 -232q0 -54 -21.5 -102t-63.5 -87t-112 -62t-159 -23q-115 0 -224 39zM342 0l913 1518h187l-912 -1518h-188zM969 236v116l448 598h189v-555h100v-159h-100v-213h-213v213h-424zM1165 395h228v305z" />
<glyph unicode="&#xbf;" horiz-adv-x="983" d="M94 -96q0 79 38.5 156.5t96 142t116 126.5t106 135t59.5 144l256 37q0 -87 -34 -171t-82 -149.5t-96 -127.5t-82 -129.5t-34 -130.5q0 -50 34.5 -76.5t98.5 -26.5q65 0 151.5 15t147.5 32l-24 -284q-41 -11 -134 -24t-145 -13q-86 0 -154 9.5t-129.5 33t-102 62t-64 99 t-23.5 140.5zM451 930q0 80 56.5 137t135.5 57q78 0 136.5 -57.5t58.5 -136.5t-58 -136t-137 -57t-135.5 56.5t-56.5 136.5z" />
<glyph unicode="&#xc0;" horiz-adv-x="1529" d="M10 0l514 1497h434l572 -1497h-377l-156 420h-512l-127 -420h-348zM418 1911h305l154 -320h-179zM559 659h354l-192 529z" />
<glyph unicode="&#xc1;" horiz-adv-x="1529" d="M10 0l514 1497h434l572 -1497h-377l-156 420h-512l-127 -420h-348zM559 659h354l-192 529zM606 1591l154 320h305l-281 -320h-178z" />
<glyph unicode="&#xc2;" horiz-adv-x="1529" d="M10 0l514 1497h434l572 -1497h-377l-156 420h-512l-127 -420h-348zM383 1591l219 320h283l219 -320h-201l-160 174l-159 -174h-201zM559 659h354l-192 529z" />
<glyph unicode="&#xc3;" horiz-adv-x="1529" d="M10 0l514 1497h434l572 -1497h-377l-156 420h-512l-127 -420h-348zM362 1610q1 111 63 176t155 65q56 0 163 -28.5t142 -28.5q25 0 43 16t18 35h180q-1 -111 -62.5 -176t-154.5 -65q-55 0 -163 28.5t-142 28.5q-25 0 -43 -16t-18 -35h-181zM559 659h354l-192 529z" />
<glyph unicode="&#xc4;" horiz-adv-x="1529" d="M10 0l514 1497h434l572 -1497h-377l-156 420h-512l-127 -420h-348zM365 1755q0 64 45 110t108 46q64 0 110 -45.5t46 -110.5q0 -63 -46 -108t-110 -45q-63 0 -108 45t-45 108zM559 659h354l-192 529zM815 1755q0 64 45.5 110t108.5 46q64 0 109.5 -45.5t45.5 -110.5 q0 -63 -45.5 -108t-109.5 -45q-63 0 -108.5 45t-45.5 108z" />
<glyph unicode="&#xc5;" horiz-adv-x="1529" d="M10 0l514 1497h434l572 -1497h-377l-156 420h-512l-127 -420h-348zM510 1778q0 97 68 165t165 68q98 0 167 -68t69 -165q0 -98 -69 -167t-167 -69q-97 0 -165 69t-68 167zM559 659h354l-192 529zM651 1778q0 -40 27 -67.5t65 -27.5q40 0 67.5 27.5t27.5 67.5 q0 38 -27.5 65t-67.5 27q-38 0 -65 -27t-27 -65z" />
<glyph unicode="&#xc6;" horiz-adv-x="2086" d="M10 0l871 1485h1118v-250h-569v-447h493v-243h-493v-295h616v-250h-985v543h-387l-297 -543h-367zM809 788h252v457z" />
<glyph unicode="&#xc7;" horiz-adv-x="1513" d="M72 774q0 141 47 263.5t126 209.5t182.5 149.5t217 93t227.5 30.5q101 0 196.5 -11t159 -27t112 -32.5t71.5 -27.5l23 -11l-50 -299q-8 6 -24 16t-67.5 36t-106 46t-137.5 36t-166 16q-85 0 -158.5 -28t-125 -75t-88 -108.5t-54 -127.5t-17.5 -132q0 -160 57.5 -284 t171.5 -195.5t269 -71.5q73 0 151.5 21t139 51.5t110.5 61t77 51.5l26 21v-319q-6 -5 -18 -14.5t-56.5 -33.5t-96 -43.5t-137 -37.5t-180.5 -23l-22 -73q85 -6 129.5 -42t44.5 -108q0 -83 -75 -134.5t-228 -51.5q-95 0 -160 20l35 123q46 -14 96 -14q45 0 71.5 16t26.5 45 q0 37 -40.5 50.5t-124.5 13.5l51 162q-108 13 -206 50.5t-186.5 103.5t-153 155t-102.5 213t-38 270z" />
<glyph unicode="&#xc8;" horiz-adv-x="1189" d="M164 0v1485h938v-250h-570v-338h494v-246h-494v-401h617v-250h-985zM328 1911h305l153 -320h-178z" />
<glyph unicode="&#xc9;" horiz-adv-x="1189" d="M164 0v1485h938v-250h-570v-338h494v-246h-494v-401h617v-250h-985zM506 1591l153 320h306l-281 -320h-178z" />
<glyph unicode="&#xca;" horiz-adv-x="1189" d="M164 0v1485h938v-250h-570v-338h494v-246h-494v-401h617v-250h-985zM289 1591l219 320h283l219 -320h-201l-160 174l-160 -174h-200z" />
<glyph unicode="&#xcb;" horiz-adv-x="1189" d="M164 0v1485h938v-250h-570v-338h494v-246h-494v-401h617v-250h-985zM270 1755q0 64 45.5 110t108.5 46q64 0 110 -45.5t46 -110.5q0 -63 -46 -108t-110 -45q-63 0 -108.5 45t-45.5 108zM721 1755q0 64 45 110t108 46q64 0 110 -45.5t46 -110.5q0 -63 -46 -108t-110 -45 q-63 0 -108 45t-45 108z" />
<glyph unicode="&#xcc;" horiz-adv-x="696" d="M12 1911h305l154 -320h-178zM164 0v1485h368v-1485h-368z" />
<glyph unicode="&#xcd;" horiz-adv-x="696" d="M164 0v1485h368v-1485h-368zM225 1591l154 320h305l-281 -320h-178z" />
<glyph unicode="&#xce;" horiz-adv-x="696" d="M-12 1591l219 320h282l220 -320h-201l-160 174l-160 -174h-200zM164 0v1485h368v-1485h-368z" />
<glyph unicode="&#xcf;" horiz-adv-x="696" d="M-31 1755q0 64 45.5 110t108.5 46q65 0 110.5 -45.5t45.5 -110.5q0 -63 -46 -108t-110 -45q-63 0 -108.5 45t-45.5 108zM164 0v1485h368v-1485h-368zM420 1755q0 64 45 110t108 46q65 0 110.5 -45.5t45.5 -110.5q0 -63 -46 -108t-110 -45q-63 0 -108 45t-45 108z" />
<glyph unicode="&#xd0;" horiz-adv-x="1572" d="M-29 651l37 246h156v588q91 4 381 4q316 0 475 -55q78 -27 145 -65t130 -95.5t107.5 -128t71.5 -166.5t27 -207q0 -125 -26 -230.5t-71.5 -183.5t-111.5 -140t-142.5 -102.5t-168 -66.5t-184 -37.5t-193.5 -11.5h-440v651h-193zM532 242q62 -15 136 -15q465 0 465 541 q0 88 -19 161.5t-49.5 124t-73.5 89.5t-87 61.5t-93.5 37t-89 19.5t-78.5 5q-84 0 -111 -4v-365h369l-37 -246h-332v-409z" />
<glyph unicode="&#xd1;" horiz-adv-x="1712" d="M164 0v1485h291l731 -875v875h342v-1495h-242l-780 925v-915h-342zM473 1610q1 111 62.5 176t154.5 65q56 0 163 -28.5t142 -28.5q25 0 43.5 16t18.5 35h180q-1 -111 -62.5 -176t-154.5 -65q-55 0 -162.5 28.5t-142.5 28.5q-25 0 -43.5 -16t-18.5 -35h-180z" />
<glyph unicode="&#xd2;" d="M72 743q0 174 61.5 321t169 246.5t253.5 154.5t314 55q162 0 308 -55.5t255.5 -154.5t173.5 -246t64 -321q0 -176 -60.5 -321.5t-167.5 -243.5t-254 -151.5t-319 -53.5q-154 0 -297.5 54t-255 150.5t-178.5 244t-67 321.5zM440 743q0 -102 36 -197t95 -164t138 -110 t161 -41q136 0 236 70.5t148.5 185t48.5 256.5q0 138 -56.5 257t-156.5 190.5t-220 71.5q-99 0 -181 -42t-136 -113t-83.5 -165t-29.5 -199zM516 1911h305l154 -320h-178z" />
<glyph unicode="&#xd3;" d="M72 743q0 174 61.5 321t169 246.5t253.5 154.5t314 55q162 0 308 -55.5t255.5 -154.5t173.5 -246t64 -321q0 -176 -60.5 -321.5t-167.5 -243.5t-254 -151.5t-319 -53.5q-154 0 -297.5 54t-255 150.5t-178.5 244t-67 321.5zM440 743q0 -102 36 -197t95 -164t138 -110 t161 -41q136 0 236 70.5t148.5 185t48.5 256.5q0 138 -56.5 257t-156.5 190.5t-220 71.5q-99 0 -181 -42t-136 -113t-83.5 -165t-29.5 -199zM729 1591l154 320h305l-281 -320h-178z" />
<glyph unicode="&#xd4;" d="M72 743q0 174 61.5 321t169 246.5t253.5 154.5t314 55q162 0 308 -55.5t255.5 -154.5t173.5 -246t64 -321q0 -176 -60.5 -321.5t-167.5 -243.5t-254 -151.5t-319 -53.5q-154 0 -297.5 54t-255 150.5t-178.5 244t-67 321.5zM440 743q0 -102 36 -197t95 -164t138 -110 t161 -41q136 0 236 70.5t148.5 185t48.5 256.5q0 138 -56.5 257t-156.5 190.5t-220 71.5q-99 0 -181 -42t-136 -113t-83.5 -165t-29.5 -199zM510 1591l219 320h283l219 -320h-201l-160 174l-159 -174h-201z" />
<glyph unicode="&#xd5;" d="M72 743q0 174 61.5 321t169 246.5t253.5 154.5t314 55q162 0 308 -55.5t255.5 -154.5t173.5 -246t64 -321q0 -176 -60.5 -321.5t-167.5 -243.5t-254 -151.5t-319 -53.5q-154 0 -297.5 54t-255 150.5t-178.5 244t-67 321.5zM440 743q0 -102 36 -197t95 -164t138 -110 t161 -41q136 0 236 70.5t148.5 185t48.5 256.5q0 138 -56.5 257t-156.5 190.5t-220 71.5q-99 0 -181 -42t-136 -113t-83.5 -165t-29.5 -199zM489 1610q1 111 63 176t155 65q55 0 162.5 -28.5t142.5 -28.5q25 0 43 16t18 35h180q-1 -111 -62.5 -176t-154.5 -65 q-56 0 -163 28.5t-142 28.5q-25 0 -43 -16t-18 -35h-181z" />
<glyph unicode="&#xd6;" d="M72 743q0 174 61.5 321t169 246.5t253.5 154.5t314 55q162 0 308 -55.5t255.5 -154.5t173.5 -246t64 -321q0 -176 -60.5 -321.5t-167.5 -243.5t-254 -151.5t-319 -53.5q-154 0 -297.5 54t-255 150.5t-178.5 244t-67 321.5zM440 743q0 -102 36 -197t95 -164t138 -110 t161 -41q136 0 236 70.5t148.5 185t48.5 256.5q0 138 -56.5 257t-156.5 190.5t-220 71.5q-99 0 -181 -42t-136 -113t-83.5 -165t-29.5 -199zM492 1755q0 64 45 110t108 46q65 0 110.5 -45.5t45.5 -110.5q0 -63 -46 -108t-110 -45q-63 0 -108 45t-45 108zM942 1755 q0 64 45.5 110t108.5 46q64 0 109.5 -45.5t45.5 -110.5q0 -63 -45.5 -108t-109.5 -45q-63 0 -108.5 45t-45.5 108z" />
<glyph unicode="&#xd7;" horiz-adv-x="1304" d="M115 1094l153 153l389 -387l383 381l148 -147l-383 -383l387 -387l-154 -154l-389 389l-385 -385l-145 145l385 386z" />
<glyph unicode="&#xd8;" d="M72 743q0 174 61.5 321t169 246.5t253.5 154.5t314 55q215 0 402 -99l51 64h305l-166 -205q209 -215 209 -537q0 -176 -60.5 -321.5t-167.5 -243.5t-254 -151.5t-319 -53.5q-206 0 -391 95l-55 -68h-305l168 207q-215 215 -215 536zM440 743q0 -146 66 -266l579 715 q-95 70 -215 70q-99 0 -181 -42t-136 -113t-83.5 -165t-29.5 -199zM666 297q98 -66 204 -66q136 0 236 70.5t148.5 185t48.5 256.5q0 141 -62 265z" />
<glyph unicode="&#xd9;" horiz-adv-x="1650" d="M164 530v955h368v-920q0 -59 14.5 -112t47 -103t95.5 -80t149 -30q58 0 104.5 18t76 48.5t50 65.5t31 73t14.5 66.5t4 51.5v922h369v-950q0 -40 -4.5 -81t-21.5 -99t-44 -108t-77 -102t-116 -88.5t-165.5 -60t-220.5 -23.5t-221.5 22.5t-168.5 58.5t-121 86t-83 100.5 t-49 106.5t-25 99.5t-6 83.5zM489 1911h306l153 -320h-178z" />
<glyph unicode="&#xda;" horiz-adv-x="1650" d="M164 530v955h368v-920q0 -59 14.5 -112t47 -103t95.5 -80t149 -30q58 0 104.5 18t76 48.5t50 65.5t31 73t14.5 66.5t4 51.5v922h369v-950q0 -40 -4.5 -81t-21.5 -99t-44 -108t-77 -102t-116 -88.5t-165.5 -60t-220.5 -23.5t-221.5 22.5t-168.5 58.5t-121 86t-83 100.5 t-49 106.5t-25 99.5t-6 83.5zM702 1591l154 320h305l-280 -320h-179z" />
<glyph unicode="&#xdb;" horiz-adv-x="1650" d="M164 530v955h368v-920q0 -59 14.5 -112t47 -103t95.5 -80t149 -30q58 0 104.5 18t76 48.5t50 65.5t31 73t14.5 66.5t4 51.5v922h369v-950q0 -40 -4.5 -81t-21.5 -99t-44 -108t-77 -102t-116 -88.5t-165.5 -60t-220.5 -23.5t-221.5 22.5t-168.5 58.5t-121 86t-83 100.5 t-49 106.5t-25 99.5t-6 83.5zM465 1591l219 320h283l219 -320h-201l-160 174l-159 -174h-201z" />
<glyph unicode="&#xdc;" horiz-adv-x="1650" d="M164 530v955h368v-920q0 -59 14.5 -112t47 -103t95.5 -80t149 -30q58 0 104.5 18t76 48.5t50 65.5t31 73t14.5 66.5t4 51.5v922h369v-950q0 -40 -4.5 -81t-21.5 -99t-44 -108t-77 -102t-116 -88.5t-165.5 -60t-220.5 -23.5t-221.5 22.5t-168.5 58.5t-121 86t-83 100.5 t-49 106.5t-25 99.5t-6 83.5zM444 1755q0 64 45.5 110t108.5 46q64 0 110 -45.5t46 -110.5q0 -63 -46 -108t-110 -45q-63 0 -108.5 45t-45.5 108zM895 1755q0 64 45.5 110t108.5 46q64 0 109.5 -45.5t45.5 -110.5q0 -63 -45.5 -108t-109.5 -45q-63 0 -108.5 45t-45.5 108z " />
<glyph unicode="&#xdd;" horiz-adv-x="1409" d="M0 1485h393l332 -633l328 633h356l-518 -901v-584h-369v555zM584 1591l153 320h305l-280 -320h-178z" />
<glyph unicode="&#xde;" horiz-adv-x="1357" d="M164 0v1485h368v-275h201q71 0 143.5 -12.5t149.5 -45t136 -80.5t96.5 -126t37.5 -176q0 -99 -33 -182t-87.5 -139t-126 -95t-147 -57t-152.5 -18q-106 0 -218 10v-289h-368zM532 506q52 -10 109 -10q28 0 59 4.5t74 21t76 43t56.5 75t23.5 112.5t-23 113t-54.5 74.5 t-73 41t-71 19.5t-55.5 4q-61 0 -121 -11v-487z" />
<glyph unicode="&#xdf;" horiz-adv-x="1320" d="M113 0v1096q0 221 134.5 351t383.5 130q202 0 336.5 -85t134.5 -220q0 -72 -24.5 -128.5t-59 -91t-69 -61.5t-59 -54.5t-24.5 -55.5q0 -23 29.5 -50.5t73.5 -54.5t96 -69t96 -89.5t73.5 -120.5t29.5 -157q0 -162 -124.5 -264.5t-318.5 -102.5q-178 0 -291 68l35 231 q54 -39 118 -61.5t116 -22.5q66 0 105.5 39.5t39.5 114.5q0 106 -158 221q-16 12 -53 37.5t-55 39.5t-46 38.5t-41.5 44.5t-24.5 47.5t-11 56.5q0 37 16 70t39.5 57t51 53t51 57t39.5 71t16 94q0 53 -41 88t-100 35q-92 0 -135 -67.5t-43 -207.5v-1077h-336z" />
<glyph unicode="&#xe0;" horiz-adv-x="1054" d="M61 225q0 56 29.5 104.5t76 81t103 59t113.5 42t103.5 26t75.5 14.5l30 3q2 12 2 131q0 15 -3.5 30t-12.5 33.5t-29 30t-49 11.5q-59 0 -89 -31t-30 -70q0 -22 10 -39l-280 -57q-15 50 -15 90q0 122 111 199q51 36 151 70t224 34q74 0 132.5 -13.5t95 -32.5t63.5 -49.5 t39.5 -55t19 -58.5t7.5 -50t1 -40q0 -29 -4 -150.5t-4 -179.5q0 -48 12.5 -84t28.5 -54.5t35.5 -29.5t30 -13.5t14.5 -2.5l-199 -201q-47 13 -86 33t-61 39.5t-37.5 37t-21.5 27.5l-5 11q-4 -6 -11.5 -16t-34 -35.5t-55.5 -45t-75.5 -35.5t-95.5 -16q-50 0 -101 13t-99.5 40 t-79 79t-30.5 120zM215 1419h305l154 -319h-178zM387 270q0 -35 22.5 -63.5t67.5 -28.5q24 0 44.5 7.5t33 18.5t21.5 22t12 18l4 8v166q-8 -1 -22 -2.5t-49.5 -11.5t-62.5 -24.5t-49 -43.5t-22 -66z" />
<glyph unicode="&#xe1;" horiz-adv-x="1054" d="M61 225q0 56 29.5 104.5t76 81t103 59t113.5 42t103.5 26t75.5 14.5l30 3q2 12 2 131q0 15 -3.5 30t-12.5 33.5t-29 30t-49 11.5q-59 0 -89 -31t-30 -70q0 -22 10 -39l-280 -57q-15 50 -15 90q0 122 111 199q51 36 151 70t224 34q74 0 132.5 -13.5t95 -32.5t63.5 -49.5 t39.5 -55t19 -58.5t7.5 -50t1 -40q0 -29 -4 -150.5t-4 -179.5q0 -48 12.5 -84t28.5 -54.5t35.5 -29.5t30 -13.5t14.5 -2.5l-199 -201q-47 13 -86 33t-61 39.5t-37.5 37t-21.5 27.5l-5 11q-4 -6 -11.5 -16t-34 -35.5t-55.5 -45t-75.5 -35.5t-95.5 -16q-50 0 -101 13t-99.5 40 t-79 79t-30.5 120zM387 270q0 -35 22.5 -63.5t67.5 -28.5q24 0 44.5 7.5t33 18.5t21.5 22t12 18l4 8v166q-8 -1 -22 -2.5t-49.5 -11.5t-62.5 -24.5t-49 -43.5t-22 -66zM412 1100l153 319h305l-280 -319h-178z" />
<glyph unicode="&#xe2;" horiz-adv-x="1054" d="M61 225q0 56 29.5 104.5t76 81t103 59t113.5 42t103.5 26t75.5 14.5l30 3q2 12 2 131q0 15 -3.5 30t-12.5 33.5t-29 30t-49 11.5q-59 0 -89 -31t-30 -70q0 -22 10 -39l-280 -57q-15 50 -15 90q0 122 111 199q51 36 151 70t224 34q74 0 132.5 -13.5t95 -32.5t63.5 -49.5 t39.5 -55t19 -58.5t7.5 -50t1 -40q0 -29 -4 -150.5t-4 -179.5q0 -48 12.5 -84t28.5 -54.5t35.5 -29.5t30 -13.5t14.5 -2.5l-199 -201q-47 13 -86 33t-61 39.5t-37.5 37t-21.5 27.5l-5 11q-4 -6 -11.5 -16t-34 -35.5t-55.5 -45t-75.5 -35.5t-95.5 -16q-50 0 -101 13t-99.5 40 t-79 79t-30.5 120zM184 1100l219 319h283l219 -319h-200l-160 174l-160 -174h-201zM387 270q0 -35 22.5 -63.5t67.5 -28.5q24 0 44.5 7.5t33 18.5t21.5 22t12 18l4 8v166q-8 -1 -22 -2.5t-49.5 -11.5t-62.5 -24.5t-49 -43.5t-22 -66z" />
<glyph unicode="&#xe3;" horiz-adv-x="1054" d="M61 225q0 56 29.5 104.5t76 81t103 59t113.5 42t103.5 26t75.5 14.5l30 3q2 12 2 131q0 15 -3.5 30t-12.5 33.5t-29 30t-49 11.5q-59 0 -89 -31t-30 -70q0 -22 10 -39l-280 -57q-15 50 -15 90q0 122 111 199q51 36 151 70t224 34q74 0 132.5 -13.5t95 -32.5t63.5 -49.5 t39.5 -55t19 -58.5t7.5 -50t1 -40q0 -29 -4 -150.5t-4 -179.5q0 -48 12.5 -84t28.5 -54.5t35.5 -29.5t30 -13.5t14.5 -2.5l-199 -201q-47 13 -86 33t-61 39.5t-37.5 37t-21.5 27.5l-5 11q-4 -6 -11.5 -16t-34 -35.5t-55.5 -45t-75.5 -35.5t-95.5 -16q-50 0 -101 13t-99.5 40 t-79 79t-30.5 120zM164 1118q1 111 62.5 176.5t154.5 65.5q55 0 163 -28.5t142 -28.5q25 0 43.5 16t18.5 35h180q-1 -111 -62.5 -176.5t-154.5 -65.5q-55 0 -162.5 28.5t-142.5 28.5q-25 0 -43.5 -16t-18.5 -35h-180zM387 270q0 -35 22.5 -63.5t67.5 -28.5q24 0 44.5 7.5 t33 18.5t21.5 22t12 18l4 8v166q-8 -1 -22 -2.5t-49.5 -11.5t-62.5 -24.5t-49 -43.5t-22 -66z" />
<glyph unicode="&#xe4;" horiz-adv-x="1054" d="M61 225q0 56 29.5 104.5t76 81t103 59t113.5 42t103.5 26t75.5 14.5l30 3q2 12 2 131q0 15 -3.5 30t-12.5 33.5t-29 30t-49 11.5q-59 0 -89 -31t-30 -70q0 -22 10 -39l-280 -57q-15 50 -15 90q0 122 111 199q51 36 151 70t224 34q74 0 132.5 -13.5t95 -32.5t63.5 -49.5 t39.5 -55t19 -58.5t7.5 -50t1 -40q0 -29 -4 -150.5t-4 -179.5q0 -48 12.5 -84t28.5 -54.5t35.5 -29.5t30 -13.5t14.5 -2.5l-199 -201q-47 13 -86 33t-61 39.5t-37.5 37t-21.5 27.5l-5 11q-4 -6 -11.5 -16t-34 -35.5t-55.5 -45t-75.5 -35.5t-95.5 -16q-50 0 -101 13t-99.5 40 t-79 79t-30.5 120zM186 1264q0 64 45.5 109.5t108.5 45.5q65 0 110.5 -45.5t45.5 -109.5q0 -63 -46 -108.5t-110 -45.5q-63 0 -108.5 45.5t-45.5 108.5zM387 270q0 -35 22.5 -63.5t67.5 -28.5q24 0 44.5 7.5t33 18.5t21.5 22t12 18l4 8v166q-8 -1 -22 -2.5t-49.5 -11.5 t-62.5 -24.5t-49 -43.5t-22 -66zM596 1264q0 64 45.5 109.5t108.5 45.5q64 0 109.5 -45.5t45.5 -109.5q0 -63 -45.5 -108.5t-109.5 -45.5q-63 0 -108.5 45.5t-45.5 108.5z" />
<glyph unicode="&#xe5;" horiz-adv-x="1054" d="M61 225q0 56 29.5 104.5t76 81t103 59t113.5 42t103.5 26t75.5 14.5l30 3q2 12 2 131q0 15 -3.5 30t-12.5 33.5t-29 30t-49 11.5q-59 0 -89 -31t-30 -70q0 -22 10 -39l-280 -57q-15 50 -15 90q0 122 111 199q51 36 151 70t224 34q74 0 132.5 -13.5t95 -32.5t63.5 -49.5 t39.5 -55t19 -58.5t7.5 -50t1 -40q0 -29 -4 -150.5t-4 -179.5q0 -48 12.5 -84t28.5 -54.5t35.5 -29.5t30 -13.5t14.5 -2.5l-199 -201q-47 13 -86 33t-61 39.5t-37.5 37t-21.5 27.5l-5 11q-4 -6 -11.5 -16t-34 -35.5t-55.5 -45t-75.5 -35.5t-95.5 -16q-50 0 -101 13t-99.5 40 t-79 79t-30.5 120zM311 1286q0 97 68.5 165.5t165.5 68.5q98 0 166.5 -68.5t68.5 -165.5q0 -98 -68.5 -166.5t-166.5 -68.5q-97 0 -165.5 68.5t-68.5 166.5zM387 270q0 -35 22.5 -63.5t67.5 -28.5q24 0 44.5 7.5t33 18.5t21.5 22t12 18l4 8v166q-8 -1 -22 -2.5t-49.5 -11.5 t-62.5 -24.5t-49 -43.5t-22 -66zM453 1286q0 -40 27 -67t65 -27q40 0 67 27t27 67q0 38 -27 65t-67 27q-38 0 -65 -27t-27 -65z" />
<glyph unicode="&#xe6;" horiz-adv-x="1562" d="M61 225q0 56 29.5 104.5t76 81t103 59t113.5 42t103.5 26t75.5 14.5l30 3q2 61 2 90q0 69 -19 107.5t-75 38.5q-59 0 -89 -31t-30 -70q0 -22 10 -39l-280 -57q-15 50 -15 90q0 122 111 199q51 36 151 70t224 34q157 0 245 -67q109 67 254 67q196 0 303 -97.5t107 -266.5 q0 -88 -10 -146h-559q0 -79 24.5 -137.5t63.5 -88t77.5 -43t77.5 -13.5q73 0 151.5 26t133.5 60l25 -211q-182 -97 -388 -97q-122 0 -225 45.5t-170 137.5q-141 -183 -321 -183q-50 0 -101 13t-99.5 40t-79 79t-30.5 120zM387 270q0 -34 21.5 -63t62.5 -29q26 0 50.5 10.5 t41 25t30 29.5t19.5 25l6 11q-24 70 -24 139q-4 0 -11.5 -1t-29 -5t-41 -10t-43.5 -18t-41 -26.5t-29 -37.5t-12 -50zM930 637h233q7 88 -29.5 134t-89.5 46q-42 0 -78 -47.5t-36 -132.5z" />
<glyph unicode="&#xe7;" horiz-adv-x="991" d="M51 492q0 217 145 356t377 139q88 0 166.5 -9.5t112.5 -18.5l35 -9l-21 -274q-13 10 -35 25.5t-86 41t-122 25.5q-116 0 -181 -61.5t-65 -210.5q0 -52 14 -101.5t41.5 -92.5t75.5 -69t110 -26q54 0 125.5 26t116.5 52l45 26l45 -219q-15 -9 -42 -23t-106.5 -43.5 t-154.5 -41.5l-24 -82q85 -6 129.5 -42t44.5 -108q0 -83 -75 -134.5t-228 -51.5q-95 0 -160 20l35 123q46 -14 96 -14q45 0 71.5 16t26.5 45q0 37 -41 50.5t-125 13.5l52 160q-62 9 -117 29.5t-107.5 60.5t-90 96t-60.5 139.5t-23 186.5z" />
<glyph unicode="&#xe8;" horiz-adv-x="1015" d="M51 500q0 88 32 173t90.5 156t153 114.5t208.5 43.5q196 0 302.5 -97.5t106.5 -266.5q0 -88 -10 -146h-559q0 -79 24.5 -137.5t63.5 -88t77.5 -43t77.5 -13.5q73 0 151.5 26t133.5 60l25 -211q-182 -97 -387 -97q-78 0 -148.5 18t-133.5 58.5t-109 100.5t-72.5 150 t-26.5 200zM209 1419h305l154 -319h-179zM383 637h233q7 88 -29 134t-89 46q-42 0 -78.5 -47.5t-36.5 -132.5z" />
<glyph unicode="&#xe9;" horiz-adv-x="1015" d="M51 500q0 88 32 173t90.5 156t153 114.5t208.5 43.5q196 0 302.5 -97.5t106.5 -266.5q0 -88 -10 -146h-559q0 -79 24.5 -137.5t63.5 -88t77.5 -43t77.5 -13.5q73 0 151.5 26t133.5 60l25 -211q-182 -97 -387 -97q-78 0 -148.5 18t-133.5 58.5t-109 100.5t-72.5 150 t-26.5 200zM383 637h233q7 88 -29 134t-89 46q-42 0 -78.5 -47.5t-36.5 -132.5zM391 1100l154 319h305l-281 -319h-178z" />
<glyph unicode="&#xea;" horiz-adv-x="1015" d="M51 500q0 88 32 173t90.5 156t153 114.5t208.5 43.5q196 0 302.5 -97.5t106.5 -266.5q0 -88 -10 -146h-559q0 -79 24.5 -137.5t63.5 -88t77.5 -43t77.5 -13.5q73 0 151.5 26t133.5 60l25 -211q-182 -97 -387 -97q-78 0 -148.5 18t-133.5 58.5t-109 100.5t-72.5 150 t-26.5 200zM168 1100l219 319h283l219 -319h-201l-160 174l-159 -174h-201zM383 637h233q7 88 -29 134t-89 46q-42 0 -78.5 -47.5t-36.5 -132.5z" />
<glyph unicode="&#xeb;" horiz-adv-x="1015" d="M51 500q0 88 32 173t90.5 156t153 114.5t208.5 43.5q196 0 302.5 -97.5t106.5 -266.5q0 -88 -10 -146h-559q0 -79 24.5 -137.5t63.5 -88t77.5 -43t77.5 -13.5q73 0 151.5 26t133.5 60l25 -211q-182 -97 -387 -97q-78 0 -148.5 18t-133.5 58.5t-109 100.5t-72.5 150 t-26.5 200zM170 1264q0 64 45.5 109.5t108.5 45.5q64 0 109.5 -45.5t45.5 -109.5q0 -63 -45.5 -108.5t-109.5 -45.5q-63 0 -108.5 45.5t-45.5 108.5zM383 637h233q7 88 -29 134t-89 46q-42 0 -78.5 -47.5t-36.5 -132.5zM580 1264q0 64 45 109.5t108 45.5q65 0 110.5 -45.5 t45.5 -109.5q0 -63 -46 -108.5t-110 -45.5q-63 0 -108 45.5t-45 108.5z" />
<glyph unicode="&#xec;" horiz-adv-x="581" d="M-41 1419h305l154 -319h-178zM123 0v926l336 61v-987h-336z" />
<glyph unicode="&#xed;" horiz-adv-x="581" d="M123 0v926l336 61v-987h-336zM164 1100l153 319h306l-281 -319h-178z" />
<glyph unicode="&#xee;" horiz-adv-x="581" d="M-70 1100l220 319h282l219 -319h-200l-160 174l-160 -174h-201zM123 0v926l336 61v-987h-336z" />
<glyph unicode="&#xef;" horiz-adv-x="581" d="M-68 1264q0 64 45.5 109.5t108.5 45.5q65 0 110.5 -45.5t45.5 -109.5q0 -63 -46 -108.5t-110 -45.5q-63 0 -108.5 45.5t-45.5 108.5zM123 0v926l336 61v-987h-336zM342 1264q0 64 45.5 109.5t108.5 45.5q64 0 109.5 -45.5t45.5 -109.5q0 -63 -45.5 -108.5t-109.5 -45.5 q-63 0 -108.5 45.5t-45.5 108.5z" />
<glyph unicode="&#xf0;" horiz-adv-x="1153" d="M51 477q0 115 40 212t107 160.5t154 98.5t183 35q70 0 129.5 -22.5t95.5 -61.5q-45 132 -137 242l-217 -105l-99 146l178 86q-130 89 -256 102q99 232 101 232q243 -40 430 -203l184 90l92 -148l-151 -73q207 -270 207 -693q0 -279 -142.5 -440.5t-380.5 -161.5 q-149 0 -266 59.5t-184.5 175t-67.5 269.5zM379 479q0 -125 57.5 -208t143.5 -83q85 0 141.5 83t56.5 208q0 131 -51 212t-147 81q-86 0 -143.5 -83.5t-57.5 -209.5z" />
<glyph unicode="&#xf1;" horiz-adv-x="1243" d="M113 0v926l315 61v-174q24 28 52.5 53t72 55t101 48t118.5 18q71 0 134 -19.5t114 -57.5t80.5 -102t29.5 -146v-662h-335v586q0 76 -40.5 117.5t-103.5 41.5q-56 0 -110 -29.5t-92 -86.5v-629h-336zM240 1118q1 111 62.5 176.5t154.5 65.5q55 0 163 -28.5t142 -28.5 q25 0 43 16t18 35h181q-1 -111 -63 -176.5t-155 -65.5q-56 0 -163 28.5t-142 28.5q-25 0 -43 -16t-18 -35h-180z" />
<glyph unicode="&#xf2;" horiz-adv-x="1157" d="M51 477q0 155 70.5 272t190 177.5t268.5 60.5q227 0 376.5 -139t149.5 -371q0 -154 -70 -269.5t-189 -175t-267 -59.5q-149 0 -268.5 59.5t-190 175t-70.5 269.5zM258 1419h305l154 -319h-178zM379 479q0 -125 57.5 -208t143.5 -83q85 0 141.5 83t56.5 208 q0 126 -56.5 209.5t-141.5 83.5q-86 0 -143.5 -83.5t-57.5 -209.5z" />
<glyph unicode="&#xf3;" horiz-adv-x="1157" d="M51 477q0 155 70.5 272t190 177.5t268.5 60.5q227 0 376.5 -139t149.5 -371q0 -154 -70 -269.5t-189 -175t-267 -59.5q-149 0 -268.5 59.5t-190 175t-70.5 269.5zM379 479q0 -125 57.5 -208t143.5 -83q85 0 141.5 83t56.5 208q0 126 -56.5 209.5t-141.5 83.5 q-86 0 -143.5 -83.5t-57.5 -209.5zM438 1100l154 319h305l-281 -319h-178z" />
<glyph unicode="&#xf4;" horiz-adv-x="1157" d="M51 477q0 155 70.5 272t190 177.5t268.5 60.5q227 0 376.5 -139t149.5 -371q0 -154 -70 -269.5t-189 -175t-267 -59.5q-149 0 -268.5 59.5t-190 175t-70.5 269.5zM217 1100l219 319h283l219 -319h-201l-159 174l-160 -174h-201zM379 479q0 -125 57.5 -208t143.5 -83 q85 0 141.5 83t56.5 208q0 126 -56.5 209.5t-141.5 83.5q-86 0 -143.5 -83.5t-57.5 -209.5z" />
<glyph unicode="&#xf5;" horiz-adv-x="1157" d="M51 477q0 155 70.5 272t190 177.5t268.5 60.5q227 0 376.5 -139t149.5 -371q0 -154 -70 -269.5t-189 -175t-267 -59.5q-149 0 -268.5 59.5t-190 175t-70.5 269.5zM197 1118q1 111 62.5 176.5t154.5 65.5q56 0 163 -28.5t142 -28.5q25 0 43 16t18 35h181 q-1 -111 -63 -176.5t-155 -65.5q-55 0 -163 28.5t-142 28.5q-25 0 -43 -16t-18 -35h-180zM379 479q0 -125 57.5 -208t143.5 -83q85 0 141.5 83t56.5 208q0 126 -56.5 209.5t-141.5 83.5q-86 0 -143.5 -83.5t-57.5 -209.5z" />
<glyph unicode="&#xf6;" horiz-adv-x="1157" d="M51 477q0 155 70.5 272t190 177.5t268.5 60.5q227 0 376.5 -139t149.5 -371q0 -154 -70 -269.5t-189 -175t-267 -59.5q-149 0 -268.5 59.5t-190 175t-70.5 269.5zM219 1264q0 64 45.5 109.5t108.5 45.5q65 0 110 -45.5t45 -109.5q0 -63 -45.5 -108.5t-109.5 -45.5 q-63 0 -108.5 45.5t-45.5 108.5zM379 479q0 -125 57.5 -208t143.5 -83q85 0 141.5 83t56.5 208q0 126 -56.5 209.5t-141.5 83.5q-86 0 -143.5 -83.5t-57.5 -209.5zM629 1264q0 64 45 109.5t108 45.5q65 0 110.5 -45.5t45.5 -109.5q0 -63 -46 -108.5t-110 -45.5 q-63 0 -108 45.5t-45 108.5z" />
<glyph unicode="&#xf7;" horiz-adv-x="1304" d="M102 598v217h1100v-217h-1100zM467 256q0 76 54 129t130 53q77 0 130 -53t53 -129t-53.5 -131t-129.5 -55q-75 0 -129.5 55.5t-54.5 130.5zM467 1161q0 76 54 129t130 53q77 0 130 -53t53 -129t-53.5 -131t-129.5 -55q-75 0 -129.5 55.5t-54.5 130.5z" />
<glyph unicode="&#xf8;" horiz-adv-x="1157" d="M51 477q0 155 70.5 272t190 177.5t268.5 60.5q153 0 274 -65l35 39h219l-123 -142q121 -137 121 -342q0 -154 -70 -269.5t-189 -175t-267 -59.5q-152 0 -277 64l-31 -37h-219l119 137q-121 137 -121 340zM379 479q0 -55 8 -94l299 344q-49 43 -106 43q-86 0 -143.5 -83.5 t-57.5 -209.5zM471 229q47 -41 109 -41q85 0 141.5 83t56.5 208q0 44 -10 92z" />
<glyph unicode="&#xf9;" horiz-adv-x="1249" d="M113 299v627l336 61v-661q0 -125 120 -125q51 0 125 33.5t107 80.5v611l336 61v-987h-314v131q-68 -72 -176.5 -115t-204.5 -43q-64 0 -121.5 19.5t-105 58t-75 102.5t-27.5 146zM324 1419h305l153 -319h-178z" />
<glyph unicode="&#xfa;" horiz-adv-x="1249" d="M113 299v627l336 61v-661q0 -125 120 -125q51 0 125 33.5t107 80.5v611l336 61v-987h-314v131q-68 -72 -176.5 -115t-204.5 -43q-64 0 -121.5 19.5t-105 58t-75 102.5t-27.5 146zM543 1100l153 319h305l-280 -319h-178z" />
<glyph unicode="&#xfb;" horiz-adv-x="1249" d="M113 299v627l336 61v-661q0 -125 120 -125q51 0 125 33.5t107 80.5v611l336 61v-987h-314v131q-68 -72 -176.5 -115t-204.5 -43q-64 0 -121.5 19.5t-105 58t-75 102.5t-27.5 146zM264 1100l219 319h283l219 -319h-201l-159 174l-160 -174h-201z" />
<glyph unicode="&#xfc;" horiz-adv-x="1249" d="M113 299v627l336 61v-661q0 -125 120 -125q51 0 125 33.5t107 80.5v611l336 61v-987h-314v131q-68 -72 -176.5 -115t-204.5 -43q-64 0 -121.5 19.5t-105 58t-75 102.5t-27.5 146zM264 1264q0 64 45.5 109.5t108.5 45.5q64 0 109.5 -45.5t45.5 -109.5q0 -63 -45.5 -108.5 t-109.5 -45.5q-63 0 -108.5 45.5t-45.5 108.5zM674 1264q0 64 45 109.5t108 45.5q65 0 110.5 -45.5t45.5 -109.5q0 -63 -46 -108.5t-110 -45.5q-63 0 -108 45.5t-45 108.5z" />
<glyph unicode="&#xfd;" horiz-adv-x="1105" d="M0 961h360l136 -398l92 -297q51 183 80 283l118 412h320q-250 -734 -328 -945q-14 -40 -27 -71t-40 -86.5t-55.5 -97.5t-72.5 -90.5t-92 -80.5t-113 -53.5t-136 -21.5q-50 0 -100 8t-74 16l-25 8l10 269q6 -5 18 -12.5t53.5 -20t88.5 -12.5q39 0 70.5 13.5t60.5 45 t42.5 50.5t41.5 63zM483 1100l154 319h305l-280 -319h-179z" />
<glyph unicode="&#xfe;" horiz-adv-x="1177" d="M113 -461v1997l336 61v-708q22 20 50.5 39t87.5 39t122 20q55 0 111 -15.5t111.5 -52.5t98.5 -91t69.5 -138t26.5 -186q0 -110 -31.5 -201.5t-82 -151t-115.5 -101t-129 -59.5t-125 -18q-114 0 -194 11v-445h-336zM449 195q24 -11 81 -11q30 0 61.5 6t69.5 24.5 t66.5 46.5t48 77t19.5 111t-18 109t-43 72t-58 40.5t-56.5 19.5t-44.5 4q-30 0 -61.5 -8t-47.5 -16l-17 -8v-467z" />
<glyph unicode="&#xff;" horiz-adv-x="1105" d="M0 961h360l136 -398l92 -297q51 183 80 283l118 412h320q-250 -734 -328 -945q-14 -40 -27 -71t-40 -86.5t-55.5 -97.5t-72.5 -90.5t-92 -80.5t-113 -53.5t-136 -21.5q-50 0 -100 8t-74 16l-25 8l10 269q6 -5 18 -12.5t53.5 -20t88.5 -12.5q39 0 70.5 13.5t60.5 45 t42.5 50.5t41.5 63zM229 1264q0 64 45.5 109.5t108.5 45.5q65 0 110.5 -45.5t45.5 -109.5q0 -63 -46 -108.5t-110 -45.5q-63 0 -108.5 45.5t-45.5 108.5zM639 1264q0 64 45.5 109.5t108.5 45.5q65 0 110 -45.5t45 -109.5q0 -63 -45.5 -108.5t-109.5 -45.5q-63 0 -108.5 45.5 t-45.5 108.5z" />
<glyph unicode="&#x152;" horiz-adv-x="2125" d="M72 743q0 174 61.5 321t169 246.5t253.5 154.5t314 55q122 0 244 -35h924v-250h-570v-338h494v-246h-494v-401h617v-250h-985q-122 -27 -230 -27q-154 0 -297.5 54t-255 150.5t-178.5 244t-67 321.5zM440 743q0 -102 36 -197t95 -164t138 -110t161 -41q133 0 230 66v887 q-105 78 -230 78q-99 0 -181 -42t-136 -113t-83.5 -165t-29.5 -199z" />
<glyph unicode="&#x153;" d="M51 477q0 155 70.5 272t190 177.5t268.5 60.5q211 0 356 -123q133 123 326 123q196 0 302.5 -97.5t106.5 -266.5q0 -88 -10 -146h-559q0 -64 16.5 -114.5t42.5 -81t59.5 -51t64.5 -28t61 -7.5q73 0 151 26t133 60l25 -211q-182 -97 -387 -97q-208 0 -336 117 q-142 -117 -352 -117q-149 0 -268.5 59.5t-190 175t-70.5 269.5zM379 479q0 -125 57.5 -208t143.5 -83q85 0 141.5 83t56.5 208q0 132 -57 212.5t-141 80.5q-86 0 -143.5 -83.5t-57.5 -209.5zM1110 637h233q7 88 -29 134t-89 46q-42 0 -78.5 -47.5t-36.5 -132.5z" />
<glyph unicode="&#x178;" horiz-adv-x="1409" d="M0 1485h393l332 -633l328 633h356l-518 -901v-584h-369v555zM324 1755q0 64 45 110t108 46q65 0 110.5 -45.5t45.5 -110.5q0 -63 -46 -108t-110 -45q-63 0 -108 45t-45 108zM774 1755q0 64 45.5 110t108.5 46q64 0 109.5 -45.5t45.5 -110.5q0 -63 -45.5 -108t-109.5 -45 q-63 0 -108.5 45t-45.5 108z" />
<glyph unicode="&#x2c6;" horiz-adv-x="819" d="M49 1100l219 319h283l219 -319h-201l-159 174l-160 -174h-201z" />
<glyph unicode="&#x2dc;" horiz-adv-x="819" d="M27 1118q1 111 62.5 176.5t154.5 65.5q56 0 163.5 -28.5t141.5 -28.5q25 0 43 16t18 35h181q-1 -111 -63 -176.5t-155 -65.5q-55 0 -163 28.5t-142 28.5q-25 0 -43 -16t-18 -35h-180z" />
<glyph unicode="&#x2000;" horiz-adv-x="1005" />
<glyph unicode="&#x2001;" horiz-adv-x="2011" />
<glyph unicode="&#x2002;" horiz-adv-x="1005" />
<glyph unicode="&#x2003;" horiz-adv-x="2011" />
<glyph unicode="&#x2004;" horiz-adv-x="670" />
<glyph unicode="&#x2005;" horiz-adv-x="502" />
<glyph unicode="&#x2006;" horiz-adv-x="335" />
<glyph unicode="&#x2007;" horiz-adv-x="335" />
<glyph unicode="&#x2008;" horiz-adv-x="251" />
<glyph unicode="&#x2009;" horiz-adv-x="402" />
<glyph unicode="&#x200a;" horiz-adv-x="111" />
<glyph unicode="&#x2010;" horiz-adv-x="661" d="M82 393v238h498v-238h-498z" />
<glyph unicode="&#x2011;" horiz-adv-x="661" d="M82 393v238h498v-238h-498z" />
<glyph unicode="&#x2012;" horiz-adv-x="661" d="M82 393v238h498v-238h-498z" />
<glyph unicode="&#x2013;" horiz-adv-x="1085" d="M82 393v238h922v-238h-922z" />
<glyph unicode="&#x2014;" horiz-adv-x="1370" d="M0 393v238h1370v-238h-1370z" />
<glyph unicode="&#x2018;" horiz-adv-x="522" d="M61 1165q0 97 53 190t175 197l26 23l146 -119l-45 -47q-15 -15 -33.5 -36.5t-45 -69t-26.5 -84.5q0 -80 70 -138l31 -26l-256 -133l-15 20q-80 112 -80 223z" />
<glyph unicode="&#x2019;" horiz-adv-x="522" d="M61 1040l45 47q14 14 33 36.5t45.5 70t26.5 84.5q0 79 -70 137l-30 27l256 133l14 -21q80 -112 80 -223q0 -97 -53 -190t-175 -197l-26 -22z" />
<glyph unicode="&#x201a;" horiz-adv-x="481" d="M61 -231l45 47q15 15 33.5 36.5t45 69t26.5 84.5q0 79 -70 137l-30 27l217 119l14 -21q78 -109 78 -223q0 -185 -217 -369l-19 -16z" />
<glyph unicode="&#x201c;" horiz-adv-x="987" d="M61 1165q0 97 53 190t175 197l26 23l146 -119l-45 -47q-15 -15 -33.5 -36.5t-45 -69t-26.5 -84.5q0 -80 70 -138l31 -26l-256 -133l-15 20q-80 112 -80 223zM526 1165q0 97 53 190t175 197l26 23l146 -119l-45 -47q-15 -15 -33.5 -36.5t-45 -69t-26.5 -84.5 q0 -80 70 -138l31 -26l-256 -133l-15 20q-80 112 -80 223z" />
<glyph unicode="&#x201d;" horiz-adv-x="991" d="M61 1040l45 47q14 14 33 36.5t45.5 70t26.5 84.5q0 79 -70 137l-30 27l256 133l14 -21q80 -112 80 -223q0 -97 -53 -190t-175 -197l-26 -22zM530 1040l45 47q14 14 33 36.5t45.5 70t26.5 84.5q0 79 -70 137l-30 27l256 133l14 -21q80 -112 80 -223q0 -97 -53 -190 t-175 -197l-26 -22z" />
<glyph unicode="&#x201e;" horiz-adv-x="907" d="M61 -233l45 47q15 15 33.5 36.5t45 69t26.5 84.5q0 79 -70 137l-30 27l217 119l14 -21q78 -109 78 -223q0 -185 -217 -369l-19 -16zM487 -233l45 47q15 15 33.5 36.5t45 69t26.5 84.5q0 79 -70 137l-30 27l217 119l14 -21q78 -109 78 -223q0 -185 -217 -369l-19 -16z" />
<glyph unicode="&#x2022;" horiz-adv-x="980" d="M102 647q0 158 115.5 274.5t274.5 116.5q158 0 272.5 -117t114.5 -274q0 -161 -114 -276t-273 -115q-160 0 -275 115t-115 276z" />
<glyph unicode="&#x2026;" horiz-adv-x="1652" d="M82 164q0 79 57.5 135.5t136.5 56.5q80 0 136.5 -56.5t56.5 -135.5q0 -80 -57 -137.5t-136 -57.5q-78 0 -136 58t-58 137zM633 164q0 79 57.5 135.5t136.5 56.5q80 0 136.5 -56.5t56.5 -135.5q0 -80 -57 -137.5t-136 -57.5q-78 0 -136 58t-58 137zM1184 164 q0 79 57.5 135.5t136.5 56.5q80 0 136.5 -56.5t56.5 -135.5q0 -80 -57 -137.5t-136 -57.5q-78 0 -136 58t-58 137z" />
<glyph unicode="&#x202f;" horiz-adv-x="402" />
<glyph unicode="&#x2039;" horiz-adv-x="606" d="M102 520l187 420h215l-178 -416l174 -389h-215z" />
<glyph unicode="&#x203a;" horiz-adv-x="606" d="M102 940h215l187 -420l-182 -385h-216l175 389z" />
<glyph unicode="&#x205f;" horiz-adv-x="502" />
<glyph unicode="&#x20ac;" horiz-adv-x="1464" d="M0 502l74 186h157q-2 18 -2 62q0 39 2 57h-182l72 186h139q31 113 90.5 207t145 166.5t203.5 113t257 40.5q102 0 184.5 -16t114.5 -30t75 -38q3 -2 6 -3.5l5 -2.5l-26 -277q-47 45 -152.5 87t-204.5 42q-313 0 -401 -289h598l-72 -186h-557v-59q0 -42 2 -60h529 l-74 -186h-420q44 -126 139.5 -199.5t245.5 -73.5q81 0 155.5 23t129 60.5t86.5 66t57 57.5l6 -301q-167 -160 -442 -160q-82 0 -162.5 16t-163.5 55.5t-151.5 98t-123.5 150.5t-83 207h-256z" />
<glyph unicode="&#x2122;" horiz-adv-x="1910" d="M82 1339v152h688v-152h-240v-696h-208v696h-240zM852 643l20 848h261l215 -557l196 557h264l21 -846h-193l-12 572l-223 -576h-125l-223 590l-11 -588h-190z" />
<glyph unicode="&#x25fc;" horiz-adv-x="962" d="M0 0v963h963v-963h-963z" />
</font>
</defs>
</svg>
