<svg title="twitter" xmlns="http://www.w3.org/2000/svg" width="28" height="28" viewBox="0 0 28 28">
	<path d="M23.6 9.6v.6c0 6.4-4.9 13.8-13.8 13.8-2.7 0-5.3-.8-7.4-2.2.4 0 .8.1 1.2.1 2.3 0 4.4-.8 6-2.1-2.1 0-3.9-1.4-4.5-3.4.3.1.6.1.9.1.4 0 .9-.1 1.3-.2-2.2-.4-3.9-2.4-3.9-4.7v-.1c.7.4 1.4.6 2.2.6-1.3-.9-2.2-2.4-2.2-4 0-.9.2-1.7.7-2.4 2.4 2.9 6 4.9 10 5.1-.1-.4-.1-.7-.1-1.1 0-2.7 2.2-4.8 4.8-4.8 1.4 0 2.7.6 3.5 1.5 1.1-.2 2.1-.6 3.1-1.2-.4 1.1-1.1 2.1-2.1 2.7 1-.1 1.9-.4 2.8-.8-.7.9-1.6 1.8-2.5 2.5z"/>
</svg>