<svg xmlns="http://www.w3.org/2000/svg" xmlns:xlink="http://www.w3.org/1999/xlink" class="hide"><symbol id="arrow-down" viewBox="0 0 26 26">
  <path d="M14.88 17.05l7.07-7.07-1.414-1.414-7.07 7.07-7.072-7.07L4.98 9.98l7.07 7.07 1.415 1.415"/>
</symbol><symbol id="arrow-left" viewBox="0 0 26 26">
  <path d="M9.93 14.93L17 22l1.414-1.414-7.07-7.07 7.07-7.072L17 5.03 9.93 12.1l-1.415 1.415"/>
</symbol><symbol id="arrow-right" viewBox="0 0 26 26">
  <path d="M17 12.1L9.93 5.03 8.514 6.444l7.07 7.07-7.07 7.072L9.93 22 17 14.93l1.414-1.415"/>
</symbol><symbol id="arrow-up" viewBox="0 0 26 26">
  <path d="M12.05 9.98l-7.07 7.07 1.414 1.415 7.07-7.07 7.072 7.07 1.414-1.414-7.07-7.07-1.415-1.413"/>
</symbol><symbol id="close" viewBox="0 0 26 26">
  <path d="M21.485 6.444L5.93 22l-1.415-1.414L20.07 5.03z"/>
  <path d="M5.93 5.03l15.555 15.556L20.07 22 4.516 6.444z"/>
</symbol><symbol id="email" viewBox="0 0 26 26">
  <path d="M20.996 6.45l-16.95 5.973c-.273.096-.334.33-.01.46l3.644 1.46 2.16.864 10.544-7.743c.143-.104.306.09.203.202l-7.557 8.172v.003l-.434.484.576.31 4.782 2.574c.28.15.642.026.723-.32.094-.41 2.73-11.77 2.79-12.024.076-.328-.143-.53-.47-.413zM9.82 20.397c0 .236.134.303.318.136.242-.22 2.736-2.458 2.736-2.458l-3.054-1.58v3.902z"/>
</symbol><symbol id="facebook" viewBox="0 0 28 28">
	<path d="M24.2.9H3.8C2.2.9.9 2.2.9 3.8v20.3c0 1.6 1.3 2.9 2.9 2.9H14V16.9h-2.9v-3.6H14v-3C14 7.2 15.8 5 19.5 5h2.6v3.8h-1.7c-1.4 0-2 1.1-2 2.1v2.5h3.7l-.8 3.6h-2.9v10.2h5.8c1.6 0 2.9-1.3 2.9-2.9V3.8c0-1.6-1.3-2.9-2.9-2.9z"/>
</symbol><symbol id="google" viewBox="0 0 28 28">
	<path d="M13.9 12.4v3.7H20c-.2 1.6-1.8 4.7-6.1 4.7-3.7 0-6.7-3.1-6.7-6.8s3-6.8 6.7-6.8c2.1 0 3.5.9 4.3 1.7L21.1 6c-1.9-1.8-4.3-2.8-7.2-2.8C7.9 3.2 3.1 8 3.1 14s4.8 10.8 10.8 10.8c6.2 0 10.4-4.4 10.4-10.5 0-.7-.1-1.3-.2-1.8H13.9z"/>
</symbol><symbol id="instagram" viewBox="0 0 28 28">
	<path d="M13.9 3.2c3.5 0 3.9 0 5.3.1 1.3.1 2 .3 2.4.5.6.2 1.1.5 1.5 1 .5.5.7.9 1 1.5.2.5.4 1.2.5 2.4.1 1.4.1 1.8.1 5.3s0 3.9-.1 5.3c-.1 1.3-.3 2-.5 2.4-.2.6-.5 1.1-1 1.5-.5.5-.9.7-1.5 1-.5.2-1.2.4-2.4.5-1.4.1-1.8.1-5.3.1s-3.9 0-5.3-.1c-1.3-.1-2-.3-2.4-.5-.6-.2-1.1-.5-1.5-1-.5-.5-.7-.9-1-1.5-.2-.5-.4-1.2-.5-2.4-.1-1.4-.1-1.8-.1-5.3s0-3.9.1-5.3c.1-1.3.3-2 .5-2.4.2-.6.5-1.1 1-1.5.5-.5.9-.7 1.5-1 .5-.2 1.2-.4 2.4-.5 1.3-.1 1.7-.1 5.3-.1zm0-2.4c-3.6 0-4 0-5.4.1-1.5.1-2.4.3-3.2.6-.9.3-1.6.8-2.4 1.5-.7.8-1.2 1.5-1.5 2.3-.3.9-.5 1.8-.6 3.2C.7 9.9.7 10.4.7 14s0 4 .1 5.4c.1 1.4.3 2.4.6 3.2.3.9.8 1.6 1.5 2.3.7.7 1.5 1.2 2.3 1.5.9.3 1.8.5 3.2.6 1.4.1 1.8.1 5.4.1s4 0 5.4-.1c1.4-.1 2.4-.3 3.2-.6.9-.3 1.6-.8 2.3-1.5.7-.7 1.2-1.5 1.5-2.3.3-.8.5-1.8.6-3.2.2-1.4.2-1.9.2-5.4s0-4-.1-5.4c-.1-1.4-.3-2.4-.6-3.2-.3-.9-.8-1.6-1.5-2.4-.7-.7-1.5-1.2-2.3-1.5-.8-.3-1.8-.5-3.2-.6-1.4-.1-1.9-.1-5.4-.1z"/>
	<path d="M13.9 7.2a6.7 6.7 0 1 0 0 13.4 6.7 6.7 0 0 0 0-13.4zm0 11.1c-2.4 0-4.4-2-4.4-4.4s2-4.4 4.4-4.4 4.4 2 4.4 4.4-2 4.4-4.4 4.4zm8.5-11.4c0 .9-.7 1.6-1.6 1.6s-1.6-.7-1.6-1.6.7-1.6 1.6-1.6 1.6.8 1.6 1.6z"/>
</symbol><symbol id="link" viewBox="0 0 28 28">
	<path d="M5.8 1.3v21.1h21.1V1.3H5.8zm16.9 6.3v6.2h-2.2V9.2l-8.9 8.9-1.6-1.6 9-8.9h-4.7V5.4h8.4v2.2zM3.6 24.5h21.1v2.2H1.4V3.4h2.2v21.1z"/>
</symbol><symbol id="linkedin" viewBox="0 0 28 28">
	<path d="M8.7 6.2c0 1.2-.8 2.2-2.2 2.2-1.4 0-2.2-1-2.2-2.2C4.2 5.1 5.1 4 6.5 4s2.2 1 2.2 2.2zm-4.5 18V9.6h4.5v14.6H4.2zm6.8-9.6c0-1.7-.1-3.2-.1-4.4h4l.2 1.9h.1c.6-.9 2-2.2 4.3-2.2 2.8 0 5 1.9 5 6v8.4H20v-7.7c0-1.8-.7-3.2-2.2-3.2-1.2 0-1.8 1-2.1 1.8-.1.3-.1.7-.1 1.1v8H11v-9.7z"/>
</symbol><symbol id="menu" viewBox="0 0 28 28">
	<path d="M4,7h20v1H4V7z M4,14h20v1H4V14z M4,21h17v1H4V21z"/>
</symbol><symbol id="pause" viewBox="0 0 26 26"><path d="M8 22V4h3v18H8zm7 0V4h3v18h-3z"/></symbol><symbol id="phone" viewBox="0 0 28 28">
	<path d="M9.7 21.9s3.9 3.4 8.4 4.1c0 0 3.1.7 5.2-1.8 0 0 1.5-1.1.1-2.7L20 18.1s-.8-.9-2.1-.1l-2 1.9s-5.4-2.8-7.6-7.7l1.5-1.5s1.5-1.3 0-2.9L6.6 4.6s-1.2-.8-2.3.2c0 0-2.9 2.4-1.9 6.4-.1 0 0 4.3 7.3 10.7z"/>
	<path d="M14.8 6.6v2.2h2.9L14 12.6l1.6 1.6 3.7-3.8v3h2.3V6.6z"/>
</symbol><symbol id="pinterest" viewBox="0 0 28 28">
	<path d="M5.5 10.9c0-1 .2-1.9.5-2.7.3-.8.8-1.6 1.4-2.2s1.3-1.2 2-1.6c.8-.5 1.6-.8 2.5-1 .9-.2 1.8-.3 2.7-.3 1.4 0 2.7.3 3.9.9s2.2 1.4 2.9 2.6c.8 1.1 1.1 2.4 1.1 3.8 0 .9-.1 1.7-.3 2.5-.2.8-.4 1.6-.8 2.4s-.8 1.4-1.3 2c-.5.6-1.2 1-1.9 1.4-.8.3-1.6.5-2.5.5-.6 0-1.2-.1-1.8-.4-.6-.3-1-.7-1.3-1.2-.1.3-.2.8-.4 1.5s-.3 1.1-.3 1.3c0 .2-.1.5-.3.9-.1.4-.2.8-.3.9l-.4.8s-.4.7-.6 1c-.3.2-.5.6-.9 1l-.2.1-.1-.1c-.1-1.4-.2-2.2-.2-2.5 0-.8.1-1.7.3-2.8.2-1 .5-2.3.9-3.8s.6-2.4.7-2.7c-.3-.6-.4-1.3-.4-2.3 0-.7.2-1.4.7-2.1.5-.6 1-1 1.8-1 .5 0 1 .2 1.3.5.3.4.5.8.5 1.4 0 .6-.2 1.4-.6 2.5-.4 1.1-.6 1.9-.6 2.5 0 .6.2 1 .6 1.4.4.4.9.6 1.5.6.5 0 .9-.1 1.4-.3.4-.2.8-.5 1-.9.3-.4.5-.8.7-1.3.2-.5.4-1 .5-1.5l.3-1.5c.1-.5.1-.9.1-1.3 0-1.5-.5-2.7-1.5-3.6-1-.9-2.2-1.3-3.8-1.3-1.8 0-3.3.6-4.4 1.7-1.4 1.3-2 2.7-2 4.5 0 .4.1.8.2 1.1.1.4.2.7.4.9.1.2.2.4.4.6 0 .2.1.3.1.4 0 .2-.1.6-.2 1s-.3.6-.5.6h-.2c-.5-.1-.9-.4-1.2-.7-.4-.4-.6-.8-.8-1.3-.2-.5-.3-1-.4-1.4-.2-.6-.2-1.1-.2-1.5z"/>
</symbol><symbol id="play" viewBox="0 0 26 26"><path d="M21.7 13L7.1 4.6v16.8"/></symbol><symbol id="search" viewBox="0 0 26 26">
<path d="M14.7,2.3c-4.6,0-8.3,3.7-8.3,8.3c0,2.1,0.8,4,2.2,5.6l-5.3,5.3C3.1,21.7,3,22,3,22.2c0,0.3,0.1,0.5,0.3,0.7
	c0.2,0.2,0.5,0.3,0.8,0.3c0.3,0,0.5-0.1,0.7-0.3l5.4-5.4c1.4,0.9,2.9,1.3,4.5,1.3c4.6,0,8.3-3.7,8.3-8.3S19.3,2.3,14.7,2.3L14.7,2.3
	z M14.7,17.2c-3.6,0-6.6-2.9-6.6-6.6c0-3.6,2.9-6.6,6.6-6.6c3.6,0,6.6,2.9,6.6,6.6S18.3,17.2,14.7,17.2L14.7,17.2z"/>
</symbol><symbol id="twitter" viewBox="0 0 28 28">
	<path d="M23.6 9.6v.6c0 6.4-4.9 13.8-13.8 13.8-2.7 0-5.3-.8-7.4-2.2.4 0 .8.1 1.2.1 2.3 0 4.4-.8 6-2.1-2.1 0-3.9-1.4-4.5-3.4.3.1.6.1.9.1.4 0 .9-.1 1.3-.2-2.2-.4-3.9-2.4-3.9-4.7v-.1c.7.4 1.4.6 2.2.6-1.3-.9-2.2-2.4-2.2-4 0-.9.2-1.7.7-2.4 2.4 2.9 6 4.9 10 5.1-.1-.4-.1-.7-.1-1.1 0-2.7 2.2-4.8 4.8-4.8 1.4 0 2.7.6 3.5 1.5 1.1-.2 2.1-.6 3.1-1.2-.4 1.1-1.1 2.1-2.1 2.7 1-.1 1.9-.4 2.8-.8-.7.9-1.6 1.8-2.5 2.5z"/>
</symbol><symbol id="video" viewBox="0 0 28 28">
	<path d="M14 27.4C6.6 27.4.6 21.4.6 14S6.6.6 14 .6s13.4 6 13.4 13.4-6 13.4-13.4 13.4zm0-25.8C7.2 1.6 1.6 7.2 1.6 14S7.2 26.4 14 26.4 26.4 20.8 26.4 14 20.8 1.6 14 1.6z"/>
	<path d="M11.3 9.2l8.3 4.8-8.3 4.8V9.2z"/>
</symbol><symbol id="youtube" viewBox="0 0 28 28">
	<path d="M16.9 18.9v3c0 .6-.2 1-.6 1-.2 0-.4-.1-.6-.3v-4.3c.2-.2.4-.3.6-.3.4 0 .6.3.6.9zm4.8.1v.7h-1.3V19c0-.6.2-1 .6-1s.7.3.7 1zM8 15.9h1.5v-1.3H5.1v1.3h1.5V24H8v-8.1zm4.1 8h1.3v-7h-1.3v5.4c-.3.4-.6.6-.8.6-.2 0-.3-.1-.3-.3v-5.7H9.7v5.5c0 .5 0 .8.1 1 .1.3.4.5.8.5.5 0 .9-.3 1.4-.9l.1.9zm6-2.1V19c0-.7 0-1.2-.1-1.4-.2-.5-.5-.8-1-.8s-.9.3-1.3.8v-3.1h-1.3v9.4h1.3v-.7c.4.5.9.8 1.3.8.5 0 .8-.3 1-.8.1-.2.1-.7.1-1.4zm4.8-.1v-.2h-1.3v.9c-.1.3-.3.5-.6.5-.4 0-.7-.3-.7-1v-1.2h2.5v-1.5c0-.7-.1-1.3-.4-1.6-.4-.5-.9-.7-1.5-.7s-1.1.2-1.5.7c-.3.3-.4.9-.4 1.6v2.5c0 .7.1 1.3.4 1.6.4.5.9.7 1.5.7.7 0 1.2-.3 1.5-.8.2-.3.3-.5.3-.8.2 0 .2-.2.2-.7zm-8.6-13v-3c0-.7-.2-1-.6-1-.4 0-.6.3-.6 1v3c0 .7.2 1 .6 1 .4 0 .6-.3.6-1zm10.2 10.7c0 2.2-.1 3.9-.4 5-.1.6-.4 1-.8 1.4-.4.4-.9.6-1.4.7-1.7.2-4.4.3-7.9.3s-6.1-.1-7.9-.3c-.5-.1-1-.3-1.5-.7-.4-.4-.7-.8-.8-1.4-.2-1.1-.4-2.7-.4-5 0-2.2.1-3.9.4-5 .1-.6.4-1 .8-1.4.4-.4.9-.6 1.5-.7 1.7-.2 4.4-.3 7.9-.3s6.1.1 7.9.3c.5.1 1 .3 1.5.7.4.4.7.8.8 1.4.2 1.1.3 2.7.3 5zM10.4 1.3h1.4L10.1 7v3.8H8.7V6.9c-.1-.7-.4-1.7-.9-3-.3-.9-.7-1.8-.9-2.6h1.5l1 3.7 1-3.7zM15.6 6v2.5c0 .8-.1 1.3-.4 1.7-.3.5-.9.7-1.5.7s-1.1-.2-1.5-.7c-.3-.4-.4-.9-.4-1.7V6c0-.8.1-1.3.4-1.7.4-.5.9-.7 1.5-.7.7 0 1.2.2 1.5.7.3.4.4 1 .4 1.7zm4.8-2.3v7.1h-1.3V10c-.5.6-1 .9-1.5.9-.4 0-.7-.2-.8-.5-.1-.2-.1-.6-.1-1.1V3.7H18v5.7c0 .2.1.3.3.3.3 0 .5-.2.8-.6V3.7h1.3z"/>
</symbol></svg>