<svg xmlns="http://www.w3.org/2000/svg" class="hide"><symbol id="arrow-down" viewBox="0 0 26 26">
  <path d="M14.88 17.05l7.07-7.07-1.414-1.414-7.07 7.07-7.072-7.07L4.98 9.98l7.07 7.07 1.415 1.415"/>
</symbol><symbol id="arrow-left" viewBox="0 0 26 26">
  <path d="M9.93 14.93L17 22l1.414-1.414-7.07-7.07 7.07-7.072L17 5.03 9.93 12.1l-1.415 1.415"/>
</symbol><symbol id="arrow-right" viewBox="0 0 26 26">
  <path d="M17 12.1L9.93 5.03 8.514 6.444l7.07 7.07-7.07 7.072L9.93 22 17 14.93l1.414-1.415"/>
</symbol><symbol id="arrow-up" viewBox="0 0 26 26">
  <path d="M12.05 9.98l-7.07 7.07 1.414 1.415 7.07-7.07 7.072 7.07 1.414-1.414-7.07-7.07-1.415-1.413"/>
</symbol><symbol id="close" viewBox="0 0 26 26">
  <path d="M21.485 6.444L5.93 22l-1.415-1.414L20.07 5.03z"/>
  <path d="M5.93 5.03l15.555 15.556L20.07 22 4.516 6.444z"/>
</symbol><symbol id="email" viewBox="0 0 26 26">
  <path d="M20.996 6.45l-16.95 5.973c-.273.096-.334.33-.01.46l3.644 1.46 2.16.864 10.544-7.743c.143-.104.306.09.203.202l-7.557 8.172v.003l-.434.484.576.31 4.782 2.574c.28.15.642.026.723-.32.094-.41 2.73-11.77 2.79-12.024.076-.328-.143-.53-.47-.413zM9.82 20.397c0 .236.134.303.318.136.242-.22 2.736-2.458 2.736-2.458l-3.054-1.58v3.902z"/>
</symbol><symbol id="external-link" viewBox="0 0 512 512">
  <path d="M128 320s29.412-96 192-96v96l192-128L320 64v96c-128 0-192 79.836-192 160zm224 64H64V192h62.938c5.047-5.96 10.456-11.667 16.244-17.09 21.982-20.595 48.28-36.326 78.057-46.91H0v320h416V313.688l-64 42.667V384z"/>
</symbol><symbol id="facebook" viewBox="0 0 640 640">
	<path d="M544 32H96c-35.2 0-64 28.8-64 64v448c0 35.232 28.8 64 64 64h224V384h-64v-79.2h64v-65.6c0-69.248 38.784-117.888 120.512-117.888l57.696.064v83.36h-38.304c-31.808 0-43.904 23.872-43.904 46.016v54.08h82.176L480 384h-64v224h128c35.2 0 64-28.768 64-64V96c0-35.2-28.8-64-64-64z"/>
</symbol><symbol id="google-plus" viewBox="0 0 512 512">
	<path d="M162.9 228.7v55.9h92.4c-3.7 24-27.9 70.3-92.4 70.3-55.6 0-101-46.1-101-102.9s45.4-102.9 101-102.9c31.7 0 52.8 13.5 64.9 25.1l44.2-42.6C243.6 105.1 206.8 89 162.9 89 72.8 89.1 0 161.9 0 252s72.8 162.9 162.9 162.9c94 0 156.4-66.1 156.4-159.2 0-10.7-1.2-18.9-2.6-27H162.9zM512 224h-48v-48h-48v48h-48v48h48v48h48v-48h48z"/>
</symbol><symbol id="instagram" viewBox="0 0 512 512">
	<path d="M256 46.1c68.4 0 76.5.3 103.4 1.5 25 1.1 38.5 5.3 47.5 8.8 11.9 4.6 20.5 10.2 29.4 19.1 9 9 14.5 17.5 19.2 29.4 3.5 9 7.7 22.6 8.8 47.5 1.2 27 1.5 35.1 1.5 103.4s-.3 76.5-1.5 103.4c-1.1 25-5.3 38.5-8.8 47.5-4.6 11.9-10.2 20.5-19.1 29.4-9 9-17.5 14.5-29.4 19.2-9 3.5-22.6 7.7-47.5 8.8-27 1.2-35.1 1.5-103.4 1.5s-76.5-.3-103.4-1.5c-25-1.1-38.5-5.3-47.5-8.8-11.9-4.6-20.5-10.2-29.4-19.1-9-9-14.5-17.5-19.2-29.4-3.5-9-7.7-22.6-8.8-47.5-1.2-27-1.5-35.1-1.5-103.4s.3-76.5 1.5-103.4c1.1-25 5.3-38.5 8.8-47.5 4.6-11.9 10.2-20.5 19.1-29.4 9-9 17.5-14.5 29.4-19.2 9-3.5 22.6-7.7 47.5-8.8 26.9-1.2 35-1.5 103.4-1.5zM256 0c-69.5 0-78.2.3-105.5 1.5-27.2 1.2-45.9 5.6-62.1 11.9C71.5 20 57.2 28.7 43 43 28.7 57.2 20 71.5 13.4 88.3c-6.3 16.3-10.7 34.9-11.9 62.1C.3 177.8 0 186.5 0 256s.3 78.2 1.5 105.5c1.2 27.2 5.6 45.9 11.9 62.1C20 440.5 28.7 454.8 43 469c14.2 14.2 28.5 23 45.3 29.5 16.3 6.3 34.9 10.7 62.1 11.9 27.3 1.2 36 1.5 105.5 1.5s78.2-.3 105.5-1.5c27.2-1.2 45.9-5.6 62.1-11.9 16.8-6.5 31.1-15.3 45.3-29.5s23-28.5 29.5-45.3c6.3-16.3 10.7-34.9 11.9-62.1 1.2-27.3 1.5-36 1.5-105.5s-.3-78.2-1.5-105.5c-1.2-27.2-5.6-45.9-11.9-62.1-6.3-17-15-31.3-29.3-45.5-14.2-14.2-28.5-23-45.3-29.5-16.3-6.3-34.9-10.7-62.1-11.9C334.2.3 325.5 0 256 0z"/>
	<path d="M256 124.5c-72.6 0-131.5 58.9-131.5 131.5S183.4 387.5 256 387.5 387.5 328.6 387.5 256 328.6 124.5 256 124.5zm0 216.8c-47.1 0-85.3-38.2-85.3-85.3s38.2-85.3 85.3-85.3c47.1 0 85.3 38.2 85.3 85.3s-38.2 85.3-85.3 85.3zm167.4-222c0 16.955-13.745 30.7-30.7 30.7S362 136.255 362 119.3s13.745-30.7 30.7-30.7 30.7 13.745 30.7 30.7z"/>
</symbol><symbol id="linkedin" viewBox="0 0 26 26">
  <path d="M8.56 6.364c0 1.02-.68 1.897-1.92 1.897-1.167 0-1.92-.826-1.92-1.845 0-1.046.73-1.97 1.92-1.97s1.898.873 1.92 1.92zm-3.84 15.36V9.244h3.84v12.48H4.72zm5.76-8.214c0-1.483-.05-2.722-.098-3.792h3.45l.17 1.654h.074c.485-.778 1.676-1.92 3.67-1.92 2.43 0 4.253 1.627 4.253 5.128v7.144h-3.84v-6.586c0-1.53-.584-2.698-1.92-2.698-1.02 0-1.53.826-1.8 1.506-.098.244-.12.583-.12.924v6.853h-3.84V13.51z"/>
</symbol><symbol id="menu" viewBox="0 0 26 26">
	<path d="M2 6h22v2H2zm0 6h22v2H2zm0 6h18v2H2z"/>
</symbol><symbol id="pinterest" viewBox="0 0 512 512">
  <path d="M78.077 191.036c0-19.904 3.455-38.656 10.366-56.256 6.91-17.6 16.448-32.943 28.612-46.028s26.17-24.42 42.02-34.002c15.85-9.583 32.896-16.77 51.142-21.562S247.077 26 266.057 26c29.12 0 56.212 6.127 81.275 18.383s45.43 30.086 61.094 53.492c15.664 23.405 23.497 49.852 23.497 79.34 0 17.69-1.75 35.015-5.252 51.97-3.5 16.956-9.03 33.266-16.58 48.93s-16.77 29.44-27.64 41.328c-10.87 11.887-24.23 21.38-40.08 28.474-15.85 7.095-33.266 10.644-52.247 10.644-12.533 0-24.973-2.94-37.32-8.84-12.35-5.9-21.194-14-26.54-24.32-1.842 7.19-4.422 17.557-7.74 31.1-3.316 13.548-5.482 22.3-6.496 26.265-1.013 3.963-2.903 10.506-5.667 19.628-2.768 9.125-5.16 15.668-7.19 19.63l-8.85 17.277s-8.11 14.697-12.716 21.423c-4.61 6.726-10.32 14.697-17.14 23.91l-3.87 1.38-2.49-2.762c-2.764-28.932-4.145-46.255-4.145-51.97 0-16.953 1.98-35.982 5.94-57.084 3.96-21.104 10.09-47.594 18.38-79.48s13.087-50.59 14.377-56.116c-5.9-11.98-8.848-27.55-8.848-46.72 0-15.295 4.79-29.67 14.372-43.124s21.748-20.18 36.49-20.18c11.243 0 19.998 3.73 26.264 11.194 6.264 7.463 9.397 16.91 9.397 28.334 0 12.166-4.054 29.766-12.163 52.8-8.11 23.04-12.162 40.27-12.162 51.697 0 11.61 4.145 21.24 12.44 28.888 8.292 7.645 18.337 11.47 30.13 11.47 10.136 0 19.535-2.305 28.197-6.91 8.665-4.61 15.898-10.875 21.7-18.8 5.808-7.923 10.968-16.68 15.48-26.262s8.02-19.765 10.508-30.546 4.33-21.01 5.53-30.69c1.2-9.673 1.798-18.84 1.798-27.503 0-31.884-10.09-56.717-30.27-74.5-20.18-17.787-46.485-26.68-78.922-26.68-36.86 0-67.637 11.933-92.333 35.8-24.696 23.865-37.043 54.136-37.043 90.81 0 8.11 1.153 15.94 3.457 23.5 2.306 7.555 4.794 13.544 7.466 17.968 2.67 4.422 5.16 8.614 7.462 12.577 2.3 3.963 3.453 6.774 3.453 8.43 0 5.16-1.382 11.89-4.146 20.183-2.765 8.293-6.174 12.44-10.23 12.44-.37 0-1.934-.277-4.7-.83-9.397-2.765-17.736-7.924-25.016-15.48s-12.9-16.27-16.864-26.13c-3.96-9.86-6.956-19.81-8.983-29.855-2.025-10.044-3.04-19.86-3.04-29.44z"/>
</symbol><symbol id="play" viewBox="0 0 512 512">
	<path d="M256 0C114.615 0 0 114.615 0 256s114.615 256 256 256 256-114.615 256-256S397.385 0 256 0zm-64 144l192 112-192 112V144z"/>
</symbol><symbol id="search" viewBox="0 0 512 512">
	<path d="M496.13 435.698L374.856 332.55c-12.537-11.282-25.945-16.462-36.776-15.962C366.706 283.054 384 239.548 384 192 384 85.96 298.04 0 192 0S0 85.96 0 192s85.96 192 192 192c47.55 0 91.054-17.293 124.588-45.922-.5 10.83 4.68 24.24 15.963 36.776L435.7 496.13c17.66 19.623 46.51 21.277 64.11 3.678s15.946-46.45-3.677-64.11zM192 320c-70.692 0-128-57.308-128-128S121.308 64 192 64s128 57.308 128 128-57.307 128-128 128z"/>
</symbol><symbol id="twitter" viewBox="0 0 26 26">
	<path d="M20.312 9.216c.008.18.012.36.012.54 0 5.534-4.21 11.91-11.907 11.91-2.366 0-4.564-.692-6.417-1.88.33.04.66.06.998.06 1.963 0 3.767-.67 5.198-1.792-1.83-.033-3.376-1.242-3.91-2.906.256.05.52.074.788.074.382 0 .753-.05 1.103-.146C4.263 14.69 2.82 13 2.82 10.97v-.05c.565.312 1.21.5 1.896.523-1.123-.753-1.862-2.032-1.862-3.486 0-.765.206-1.484.567-2.104 2.068 2.534 5.15 4.2 8.63 4.374-.07-.307-.11-.624-.11-.955 0-2.31 1.876-4.184 4.186-4.184 1.205 0 2.293.507 3.057 1.32.95-.187 1.85-.536 2.66-1.014-.313.976-.98 1.797-1.843 2.314.847-.102 1.65-.325 2.403-.658-.56.842-1.27 1.577-2.087 2.166z"/>
</symbol><symbol id="youtube" viewBox="0 0 512 512">
	<path d="M310.055 349.38v57.224c0 12.114-3.525 18.17-10.577 18.17-4.16 0-8.228-1.987-12.204-5.966v-81.633c3.977-3.977 8.045-5.966 12.204-5.966 7.05 0 10.577 6.057 10.577 18.17zm91.667.27v12.476h-24.408V349.65c0-12.295 4.068-18.44 12.204-18.44 8.136 0 12.204 6.145 12.204 18.44zm-261.984-59.122h29.02v-25.494H84.14v25.494h28.478v154.315h27.12V290.528zm78.107 154.316h24.137V310.868h-24.137v102.516c-5.424 7.594-10.577 11.39-15.458 11.39-3.254 0-5.153-1.897-5.695-5.694-.18-.542-.27-3.707-.27-9.492v-98.72h-24.138V416.91c0 8.86.723 15.46 2.17 19.8 2.17 6.688 7.413 10.033 15.73 10.033 8.678 0 17.9-5.514 27.662-16.544v14.644zm116.347-40.14V351.28c0-13.198-.814-22.148-2.44-26.85-3.075-10.126-9.493-15.188-19.257-15.188-9.04 0-17.448 4.882-25.222 14.645v-58.852h-24.138v179.81h24.138v-13.018c8.136 9.944 16.544 14.916 25.222 14.916 9.764 0 16.182-4.97 19.256-14.915 1.628-4.88 2.442-13.92 2.442-27.12zm91.667-2.71v-3.526h-24.68c0 9.22-.18 14.735-.543 16.543-1.266 6.51-4.882 9.765-10.85 9.765-8.315 0-12.475-6.237-12.475-18.713v-23.595h48.546v-27.935c0-14.282-2.44-24.77-7.322-31.46-7.052-9.22-16.635-13.83-28.748-13.83-12.295 0-21.968 4.61-29.02 13.83-5.06 6.69-7.593 17.178-7.593 31.46v46.92c0 14.282 2.62 24.77 7.864 31.46 7.05 9.22 16.814 13.83 29.29 13.83 13.018 0 22.78-4.792 29.29-14.374 3.254-4.882 5.152-9.764 5.695-14.645.365-1.627.544-6.87.544-15.73zm-164.893-247.61V97.43c0-12.476-3.89-18.713-11.662-18.713-7.774 0-11.662 6.238-11.662 18.713v56.953c0 12.656 3.888 18.984 11.662 18.984 7.773 0 11.662-6.328 11.662-18.984zm194.996 203.674c0 42.31-2.35 73.95-7.05 94.922-2.533 10.667-7.775 19.617-15.73 26.85s-17.178 11.39-27.664 12.476C372.25 496.102 322.08 498 255 498c-67.078 0-117.25-1.898-150.52-5.695-10.485-1.085-19.752-5.243-27.797-12.476-8.046-7.233-13.244-16.184-15.595-26.85-4.7-20.25-7.05-51.89-7.05-94.923 0-42.308 2.35-73.947 7.05-94.922 2.532-10.667 7.774-19.617 15.73-26.85s17.267-11.48 27.934-12.746c33.087-3.617 83.17-5.425 150.248-5.425 67.08 0 117.252 1.808 150.52 5.424 10.485 1.265 19.753 5.514 27.798 12.746s13.245 16.182 15.595 26.85c4.7 20.25 7.05 51.89 7.05 94.922zM185.3 12h27.663l-32.815 108.21v73.498h-27.12V120.21c-2.533-13.38-8.047-32.543-16.544-57.495-6.69-18.623-12.566-35.528-17.628-50.715h28.748l19.256 71.327L185.3 12zm100.346 90.312v47.46c0 14.646-2.532 25.313-7.594 32.003-6.69 9.22-16.272 13.832-28.748 13.832-12.114 0-21.606-4.61-28.477-13.832-5.062-6.87-7.594-17.538-7.594-32.002v-47.46c0-14.466 2.53-25.043 7.594-31.732 6.87-9.22 16.363-13.83 28.477-13.83 12.476 0 22.06 4.61 28.748 13.83 5.062 6.69 7.594 17.267 7.594 31.732zM376.5 58.376v135.332h-24.68v-14.916c-9.583 11.21-18.894 16.814-27.935 16.814-8.315 0-13.65-3.345-16-10.035-1.448-4.338-2.17-11.118-2.17-20.34V58.377h24.68v99.533c0 5.965.09 9.13.27 9.49.544 3.978 2.442 5.967 5.696 5.967 4.883 0 10.036-3.888 15.46-11.662V58.375h24.68z"/>
</symbol></svg>